G04 #@! TF.GenerationSoftware,KiCad,Pcbnew,(6.0.8)*
G04 #@! TF.CreationDate,2023-05-10T13:59:01+02:00*
G04 #@! TF.ProjectId,02_Batt_Alim,30325f42-6174-4745-9f41-6c696d2e6b69,rev?*
G04 #@! TF.SameCoordinates,Original*
G04 #@! TF.FileFunction,Paste,Top*
G04 #@! TF.FilePolarity,Positive*
%FSLAX46Y46*%
G04 Gerber Fmt 4.6, Leading zero omitted, Abs format (unit mm)*
G04 Created by KiCad (PCBNEW (6.0.8)) date 2023-05-10 13:59:01*
%MOMM*%
%LPD*%
G01*
G04 APERTURE LIST*
G04 Aperture macros list*
%AMRoundRect*
0 Rectangle with rounded corners*
0 $1 Rounding radius*
0 $2 $3 $4 $5 $6 $7 $8 $9 X,Y pos of 4 corners*
0 Add a 4 corners polygon primitive as box body*
4,1,4,$2,$3,$4,$5,$6,$7,$8,$9,$2,$3,0*
0 Add four circle primitives for the rounded corners*
1,1,$1+$1,$2,$3*
1,1,$1+$1,$4,$5*
1,1,$1+$1,$6,$7*
1,1,$1+$1,$8,$9*
0 Add four rect primitives between the rounded corners*
20,1,$1+$1,$2,$3,$4,$5,0*
20,1,$1+$1,$4,$5,$6,$7,0*
20,1,$1+$1,$6,$7,$8,$9,0*
20,1,$1+$1,$8,$9,$2,$3,0*%
G04 Aperture macros list end*
%ADD10R,2.200000X3.300000*%
%ADD11R,1.300000X0.700000*%
%ADD12R,2.500000X1.800000*%
%ADD13R,1.800000X2.500000*%
%ADD14RoundRect,0.225000X-0.250000X0.225000X-0.250000X-0.225000X0.250000X-0.225000X0.250000X0.225000X0*%
%ADD15RoundRect,0.250000X-1.100000X0.325000X-1.100000X-0.325000X1.100000X-0.325000X1.100000X0.325000X0*%
%ADD16RoundRect,0.218750X0.256250X-0.218750X0.256250X0.218750X-0.256250X0.218750X-0.256250X-0.218750X0*%
%ADD17R,3.600000X2.700000*%
%ADD18RoundRect,0.200000X-0.275000X0.200000X-0.275000X-0.200000X0.275000X-0.200000X0.275000X0.200000X0*%
%ADD19RoundRect,0.200000X0.275000X-0.200000X0.275000X0.200000X-0.275000X0.200000X-0.275000X-0.200000X0*%
%ADD20R,0.800000X1.900000*%
G04 APERTURE END LIST*
D10*
X114640000Y-70490000D03*
D11*
X117390000Y-72395000D03*
D10*
X114640000Y-70490000D03*
D11*
X117390000Y-71125000D03*
X117390000Y-69855000D03*
X117390000Y-68585000D03*
X111890000Y-68585000D03*
X111890000Y-69855000D03*
X111890000Y-71125000D03*
X111890000Y-72395000D03*
D12*
X111855000Y-64770000D03*
X107855000Y-64770000D03*
X111982000Y-75438000D03*
X107982000Y-75438000D03*
D13*
X113030000Y-81058000D03*
X113030000Y-85058000D03*
X126669800Y-69056000D03*
X126669800Y-65056000D03*
D14*
X119405400Y-68109800D03*
X119405400Y-69659800D03*
X107390000Y-68465000D03*
X107390000Y-70015000D03*
D15*
X105664000Y-82345000D03*
X105664000Y-85295000D03*
X115570000Y-75233000D03*
X115570000Y-78183000D03*
D16*
X123367800Y-66280900D03*
X123367800Y-64705900D03*
X121640600Y-66280900D03*
X121640600Y-64705900D03*
X103124000Y-82321500D03*
X103124000Y-80746500D03*
D17*
X123190000Y-84668000D03*
X123190000Y-76368000D03*
D18*
X123367800Y-67843400D03*
X123367800Y-69493400D03*
X119405400Y-71311000D03*
X119405400Y-72961000D03*
X121640600Y-67843400D03*
X121640600Y-69493400D03*
D19*
X117856000Y-66306200D03*
X117856000Y-64656200D03*
X116255800Y-66306200D03*
X116255800Y-64656200D03*
X114655600Y-66306200D03*
X114655600Y-64656200D03*
X119430800Y-66315000D03*
X119430800Y-64665000D03*
D18*
X103124000Y-83915000D03*
X103124000Y-85565000D03*
D20*
X108270000Y-84840000D03*
X110170000Y-84840000D03*
X109220000Y-81840000D03*
M02*
