G04 #@! TF.GenerationSoftware,KiCad,Pcbnew,(6.0.8)*
G04 #@! TF.CreationDate,2023-05-10T13:59:01+02:00*
G04 #@! TF.ProjectId,02_Batt_Alim,30325f42-6174-4745-9f41-6c696d2e6b69,rev?*
G04 #@! TF.SameCoordinates,Original*
G04 #@! TF.FileFunction,Copper,L2,Bot*
G04 #@! TF.FilePolarity,Positive*
%FSLAX46Y46*%
G04 Gerber Fmt 4.6, Leading zero omitted, Abs format (unit mm)*
G04 Created by KiCad (PCBNEW (6.0.8)) date 2023-05-10 13:59:01*
%MOMM*%
%LPD*%
G01*
G04 APERTURE LIST*
G04 Aperture macros list*
%AMFreePoly0*
4,1,19,2.294749,0.844703,2.473926,0.804652,2.640323,0.727060,2.786177,0.615546,2.904682,0.475314,2.990310,0.312906,3.039066,0.135899,3.048675,-0.047448,3.018688,-0.228582,2.950505,-0.399051,2.847308,-0.550902,2.713909,-0.677050,2.556534,-0.771611,2.382525,-0.830171,2.200000,-0.850000,-0.850000,-0.850000,-0.850000,0.850000,2.200000,0.850000,2.294749,0.844703,2.294749,0.844703,
$1*%
G04 Aperture macros list end*
G04 #@! TA.AperFunction,ComponentPad*
%ADD10C,1.000000*%
G04 #@! TD*
G04 #@! TA.AperFunction,SMDPad,CuDef*
%ADD11R,2.200000X3.300000*%
G04 #@! TD*
G04 #@! TA.AperFunction,ComponentPad*
%ADD12FreePoly0,180.000000*%
G04 #@! TD*
G04 #@! TA.AperFunction,ComponentPad*
%ADD13C,1.524000*%
G04 #@! TD*
G04 #@! TA.AperFunction,ViaPad*
%ADD14C,1.000000*%
G04 #@! TD*
G04 #@! TA.AperFunction,Conductor*
%ADD15C,0.400000*%
G04 #@! TD*
G04 APERTURE END LIST*
D10*
X115275000Y-70490000D03*
X114005000Y-70490000D03*
X115275000Y-69347000D03*
X114005000Y-69347000D03*
D11*
X114640000Y-70490000D03*
D10*
X115275000Y-71633000D03*
X114005000Y-71633000D03*
D12*
X104140000Y-73660000D03*
D13*
X101600000Y-73660000D03*
D12*
X104140000Y-71120000D03*
D13*
X101600000Y-71120000D03*
D12*
X104140000Y-68580000D03*
D13*
X101600000Y-68580000D03*
D12*
X104140000Y-66040000D03*
D13*
X101600000Y-66040000D03*
D14*
X115519200Y-79654400D03*
X116687600Y-79705200D03*
X107640000Y-86740000D03*
X106140000Y-86740000D03*
X104640000Y-86740000D03*
X103140000Y-86740000D03*
X106240000Y-68840000D03*
X116052600Y-80721200D03*
X108640000Y-67740000D03*
X110390000Y-72490000D03*
X111640000Y-67240000D03*
X123367800Y-70688200D03*
X110390000Y-71240000D03*
X121640600Y-70688200D03*
X110440000Y-70034239D03*
D15*
X112039400Y-79806800D02*
X115366800Y-79806800D01*
X106240000Y-74007400D02*
X112039400Y-79806800D01*
X106240000Y-68840000D02*
X106240000Y-74007400D01*
X115366800Y-79806800D02*
X115519200Y-79654400D01*
X116052600Y-81584800D02*
X110897400Y-86740000D01*
X116052600Y-80721200D02*
X116052600Y-81584800D01*
X110897400Y-86740000D02*
X107640000Y-86740000D01*
X120316000Y-73740000D02*
X120853200Y-73202800D01*
X119401600Y-73740000D02*
X120316000Y-73740000D01*
X120853200Y-73202800D02*
X123367800Y-70688200D01*
X119401600Y-73740000D02*
X112140000Y-73740000D01*
X119897600Y-72990000D02*
X121640600Y-71247000D01*
X121640600Y-71247000D02*
X121640600Y-70688200D01*
X119897600Y-72990000D02*
X112640000Y-72990000D01*
X108640000Y-67740000D02*
X110390000Y-65990000D01*
X110390000Y-65990000D02*
X113890000Y-65990000D01*
X114640000Y-66740000D02*
X114640000Y-70490000D01*
X113890000Y-65990000D02*
X114640000Y-66740000D01*
X109140000Y-71990000D02*
X109140000Y-69740000D01*
X109140000Y-69740000D02*
X111640000Y-67240000D01*
X110390000Y-72490000D02*
X109640000Y-72490000D01*
X109640000Y-72490000D02*
X109140000Y-71990000D01*
X112140000Y-73740000D02*
X111640000Y-73240000D01*
X111640000Y-73240000D02*
X111990010Y-73590010D01*
X111140000Y-71240000D02*
X111640000Y-71740000D01*
X110390000Y-71240000D02*
X111140000Y-71240000D01*
X111640000Y-71740000D02*
X111640000Y-73240000D01*
X111184239Y-70034239D02*
X112390000Y-71240000D01*
X112390000Y-72740000D02*
X112640000Y-72990000D01*
X112390000Y-71240000D02*
X112390000Y-72740000D01*
X110440000Y-70034239D02*
X111184239Y-70034239D01*
G04 #@! TA.AperFunction,Conductor*
G36*
X128973621Y-62758502D02*
G01*
X129020114Y-62812158D01*
X129031500Y-62864500D01*
X129031500Y-86995500D01*
X129011498Y-87063621D01*
X128957842Y-87110114D01*
X128905500Y-87121500D01*
X102234500Y-87121500D01*
X102166379Y-87101498D01*
X102119886Y-87047842D01*
X102108500Y-86995500D01*
X102108500Y-75149729D01*
X102128502Y-75081608D01*
X102182158Y-75035115D01*
X102234500Y-75023729D01*
X104990000Y-75023729D01*
X105021986Y-75021441D01*
X105056373Y-75018982D01*
X105056374Y-75018982D01*
X105063111Y-75018500D01*
X105142618Y-74995155D01*
X105194765Y-74979843D01*
X105194767Y-74979842D01*
X105203411Y-74977304D01*
X105242730Y-74952035D01*
X105318841Y-74903122D01*
X105318844Y-74903120D01*
X105326421Y-74898250D01*
X105390132Y-74824724D01*
X105416274Y-74794555D01*
X105416276Y-74794552D01*
X105422176Y-74787743D01*
X105482919Y-74654734D01*
X105503729Y-74510000D01*
X105503729Y-73737581D01*
X105503925Y-73730548D01*
X105506514Y-73684243D01*
X105506514Y-73684238D01*
X105506704Y-73680840D01*
X105503902Y-73627377D01*
X105503729Y-73620782D01*
X105503729Y-72810000D01*
X105498500Y-72736889D01*
X105457304Y-72596589D01*
X105430905Y-72555512D01*
X105383122Y-72481159D01*
X105383120Y-72481156D01*
X105378250Y-72473579D01*
X105372676Y-72468749D01*
X105343525Y-72404922D01*
X105353627Y-72334647D01*
X105373018Y-72304474D01*
X105416274Y-72254555D01*
X105416276Y-72254552D01*
X105422176Y-72247743D01*
X105482919Y-72114734D01*
X105495483Y-72027352D01*
X108427275Y-72027352D01*
X108428580Y-72034829D01*
X108428580Y-72034830D01*
X108438261Y-72090299D01*
X108439223Y-72096821D01*
X108446898Y-72160242D01*
X108449581Y-72167343D01*
X108450222Y-72169952D01*
X108454685Y-72186262D01*
X108455450Y-72188798D01*
X108456757Y-72196284D01*
X108475748Y-72239545D01*
X108482442Y-72254795D01*
X108484933Y-72260899D01*
X108507513Y-72320656D01*
X108511817Y-72326919D01*
X108513054Y-72329285D01*
X108521299Y-72344097D01*
X108522632Y-72346351D01*
X108525685Y-72353305D01*
X108530307Y-72359328D01*
X108564579Y-72403991D01*
X108568459Y-72409332D01*
X108600339Y-72455720D01*
X108600344Y-72455725D01*
X108604643Y-72461981D01*
X108610313Y-72467032D01*
X108610314Y-72467034D01*
X108651170Y-72503435D01*
X108656446Y-72508416D01*
X109118550Y-72970520D01*
X109124404Y-72976785D01*
X109162439Y-73020385D01*
X109168657Y-73024755D01*
X109214697Y-73057112D01*
X109219993Y-73061045D01*
X109270282Y-73100477D01*
X109277204Y-73103602D01*
X109279452Y-73104964D01*
X109294185Y-73113368D01*
X109296524Y-73114622D01*
X109302739Y-73118990D01*
X109309815Y-73121749D01*
X109309819Y-73121751D01*
X109362269Y-73142200D01*
X109368334Y-73144749D01*
X109426573Y-73171045D01*
X109434038Y-73172429D01*
X109436582Y-73173226D01*
X109452848Y-73177859D01*
X109455428Y-73178521D01*
X109462509Y-73181282D01*
X109470042Y-73182274D01*
X109470043Y-73182274D01*
X109502699Y-73186573D01*
X109525857Y-73189622D01*
X109532355Y-73190650D01*
X109595187Y-73202296D01*
X109602767Y-73201859D01*
X109602768Y-73201859D01*
X109610948Y-73201387D01*
X109615597Y-73201119D01*
X109684756Y-73217166D01*
X109704512Y-73230955D01*
X109811650Y-73322136D01*
X109984294Y-73418624D01*
X110172392Y-73479740D01*
X110368777Y-73503158D01*
X110374912Y-73502686D01*
X110374914Y-73502686D01*
X110559830Y-73488457D01*
X110559834Y-73488456D01*
X110565972Y-73487984D01*
X110756463Y-73434798D01*
X110761967Y-73432018D01*
X110761969Y-73432017D01*
X110797557Y-73414040D01*
X110867379Y-73401180D01*
X110933070Y-73428109D01*
X110969739Y-73475858D01*
X110982450Y-73504813D01*
X110984933Y-73510899D01*
X111007513Y-73570656D01*
X111011817Y-73576919D01*
X111013054Y-73579285D01*
X111021299Y-73594097D01*
X111022632Y-73596351D01*
X111025685Y-73603305D01*
X111044157Y-73627377D01*
X111064579Y-73653991D01*
X111068459Y-73659332D01*
X111100339Y-73705720D01*
X111100344Y-73705725D01*
X111104643Y-73711981D01*
X111110313Y-73717032D01*
X111110314Y-73717034D01*
X111151170Y-73753435D01*
X111156446Y-73758416D01*
X111618550Y-74220520D01*
X111624404Y-74226785D01*
X111662439Y-74270385D01*
X111668657Y-74274755D01*
X111714697Y-74307112D01*
X111719993Y-74311045D01*
X111770282Y-74350477D01*
X111777204Y-74353602D01*
X111779452Y-74354964D01*
X111794185Y-74363368D01*
X111796524Y-74364622D01*
X111802739Y-74368990D01*
X111809815Y-74371749D01*
X111809819Y-74371751D01*
X111862269Y-74392200D01*
X111868334Y-74394749D01*
X111926573Y-74421045D01*
X111934038Y-74422429D01*
X111936582Y-74423226D01*
X111952848Y-74427859D01*
X111955428Y-74428521D01*
X111962509Y-74431282D01*
X111970042Y-74432274D01*
X111970043Y-74432274D01*
X111983261Y-74434014D01*
X112025857Y-74439622D01*
X112032355Y-74440650D01*
X112095187Y-74452296D01*
X112102767Y-74451859D01*
X112102768Y-74451859D01*
X112157393Y-74448709D01*
X112164647Y-74448500D01*
X120287088Y-74448500D01*
X120295658Y-74448792D01*
X120345776Y-74452209D01*
X120345780Y-74452209D01*
X120353352Y-74452725D01*
X120360829Y-74451420D01*
X120360830Y-74451420D01*
X120387308Y-74446799D01*
X120416303Y-74441738D01*
X120422821Y-74440777D01*
X120486242Y-74433102D01*
X120493343Y-74430419D01*
X120495952Y-74429778D01*
X120512262Y-74425315D01*
X120514798Y-74424550D01*
X120522284Y-74423243D01*
X120580800Y-74397556D01*
X120586904Y-74395065D01*
X120591319Y-74393397D01*
X120646656Y-74372487D01*
X120652919Y-74368183D01*
X120655285Y-74366946D01*
X120670097Y-74358701D01*
X120672351Y-74357368D01*
X120679305Y-74354315D01*
X120730002Y-74315413D01*
X120735332Y-74311541D01*
X120781720Y-74279661D01*
X120781725Y-74279656D01*
X120787981Y-74275357D01*
X120829436Y-74228829D01*
X120834416Y-74223554D01*
X123324491Y-71733479D01*
X123386803Y-71699453D01*
X123403915Y-71696946D01*
X123458729Y-71692728D01*
X123537630Y-71686657D01*
X123537634Y-71686656D01*
X123543772Y-71686184D01*
X123734263Y-71632998D01*
X123739767Y-71630218D01*
X123739769Y-71630217D01*
X123905295Y-71546604D01*
X123905297Y-71546603D01*
X123910796Y-71543825D01*
X124066647Y-71422061D01*
X124195878Y-71272345D01*
X124293569Y-71100379D01*
X124355997Y-70912713D01*
X124380785Y-70716495D01*
X124381180Y-70688200D01*
X124361880Y-70491367D01*
X124304716Y-70302031D01*
X124211866Y-70127404D01*
X124120609Y-70015512D01*
X124090760Y-69978913D01*
X124090757Y-69978910D01*
X124086865Y-69974138D01*
X124080518Y-69968887D01*
X123939225Y-69851999D01*
X123939221Y-69851997D01*
X123934475Y-69848070D01*
X123760501Y-69754002D01*
X123571568Y-69695518D01*
X123565443Y-69694874D01*
X123565442Y-69694874D01*
X123381004Y-69675489D01*
X123381002Y-69675489D01*
X123374875Y-69674845D01*
X123292376Y-69682353D01*
X123184051Y-69692211D01*
X123184048Y-69692212D01*
X123177912Y-69692770D01*
X123172006Y-69694508D01*
X123172002Y-69694509D01*
X123066876Y-69725449D01*
X122988181Y-69748610D01*
X122982723Y-69751463D01*
X122982719Y-69751465D01*
X122891947Y-69798920D01*
X122812910Y-69840240D01*
X122658775Y-69964168D01*
X122600871Y-70033176D01*
X122541763Y-70072501D01*
X122470775Y-70073627D01*
X122406708Y-70031818D01*
X122363564Y-69978918D01*
X122363559Y-69978913D01*
X122359665Y-69974138D01*
X122353318Y-69968887D01*
X122212025Y-69851999D01*
X122212021Y-69851997D01*
X122207275Y-69848070D01*
X122033301Y-69754002D01*
X121844368Y-69695518D01*
X121838243Y-69694874D01*
X121838242Y-69694874D01*
X121653804Y-69675489D01*
X121653802Y-69675489D01*
X121647675Y-69674845D01*
X121565176Y-69682353D01*
X121456851Y-69692211D01*
X121456848Y-69692212D01*
X121450712Y-69692770D01*
X121444806Y-69694508D01*
X121444802Y-69694509D01*
X121339676Y-69725449D01*
X121260981Y-69748610D01*
X121255523Y-69751463D01*
X121255519Y-69751465D01*
X121164747Y-69798920D01*
X121085710Y-69840240D01*
X120931575Y-69964168D01*
X120804446Y-70115674D01*
X120801479Y-70121072D01*
X120801475Y-70121077D01*
X120722695Y-70264380D01*
X120709167Y-70288987D01*
X120707306Y-70294854D01*
X120707305Y-70294856D01*
X120651227Y-70471636D01*
X120649365Y-70477506D01*
X120627319Y-70674051D01*
X120643868Y-70871134D01*
X120645567Y-70877058D01*
X120693359Y-71043728D01*
X120698383Y-71061250D01*
X120701201Y-71066733D01*
X120703469Y-71072461D01*
X120701193Y-71073362D01*
X120712501Y-71132517D01*
X120686015Y-71198388D01*
X120676185Y-71209445D01*
X119641035Y-72244595D01*
X119578723Y-72278621D01*
X119551940Y-72281500D01*
X113224500Y-72281500D01*
X113156379Y-72261498D01*
X113109886Y-72207842D01*
X113098500Y-72155500D01*
X113098500Y-71268927D01*
X113098792Y-71260358D01*
X113102210Y-71210225D01*
X113102210Y-71210221D01*
X113102726Y-71202648D01*
X113091736Y-71139681D01*
X113090775Y-71133165D01*
X113089182Y-71120000D01*
X113083102Y-71069758D01*
X113080419Y-71062657D01*
X113079778Y-71060048D01*
X113075313Y-71043728D01*
X113074548Y-71041195D01*
X113073243Y-71033717D01*
X113047552Y-70975190D01*
X113045067Y-70969102D01*
X113025172Y-70916449D01*
X113025171Y-70916447D01*
X113022487Y-70909344D01*
X113018186Y-70903085D01*
X113016949Y-70900720D01*
X113008727Y-70885948D01*
X113007372Y-70883656D01*
X113004316Y-70876695D01*
X112999691Y-70870668D01*
X112999689Y-70870664D01*
X112965407Y-70825987D01*
X112961529Y-70820650D01*
X112929659Y-70774278D01*
X112929658Y-70774277D01*
X112925357Y-70768019D01*
X112878837Y-70726572D01*
X112873560Y-70721590D01*
X111705681Y-69553711D01*
X111699827Y-69547445D01*
X111666795Y-69509579D01*
X111666792Y-69509576D01*
X111661800Y-69503854D01*
X111609519Y-69467110D01*
X111604225Y-69463178D01*
X111559932Y-69428448D01*
X111553957Y-69423763D01*
X111547041Y-69420640D01*
X111544755Y-69419256D01*
X111530074Y-69410882D01*
X111527714Y-69409617D01*
X111521500Y-69405249D01*
X111514421Y-69402489D01*
X111514419Y-69402488D01*
X111461964Y-69382037D01*
X111455895Y-69379486D01*
X111397666Y-69353194D01*
X111390199Y-69351810D01*
X111387644Y-69351009D01*
X111371391Y-69346380D01*
X111368811Y-69345717D01*
X111361730Y-69342957D01*
X111354199Y-69341966D01*
X111354197Y-69341965D01*
X111324578Y-69338066D01*
X111298378Y-69334617D01*
X111291880Y-69333587D01*
X111229053Y-69321943D01*
X111215046Y-69322751D01*
X111145888Y-69306705D01*
X111127477Y-69294045D01*
X111011425Y-69198038D01*
X111011421Y-69198036D01*
X111006675Y-69194109D01*
X111001255Y-69191179D01*
X111001250Y-69191175D01*
X110948443Y-69162622D01*
X110898035Y-69112627D01*
X110882658Y-69043316D01*
X110907195Y-68976694D01*
X110919278Y-68962692D01*
X111596691Y-68285279D01*
X111659003Y-68251253D01*
X111676115Y-68248746D01*
X111730929Y-68244528D01*
X111809830Y-68238457D01*
X111809834Y-68238456D01*
X111815972Y-68237984D01*
X112006463Y-68184798D01*
X112011967Y-68182018D01*
X112011969Y-68182017D01*
X112177495Y-68098404D01*
X112177497Y-68098403D01*
X112182996Y-68095625D01*
X112338847Y-67973861D01*
X112468078Y-67824145D01*
X112565769Y-67652179D01*
X112628197Y-67464513D01*
X112652985Y-67268295D01*
X112653380Y-67240000D01*
X112634080Y-67043167D01*
X112576916Y-66853831D01*
X112484066Y-66679204D01*
X112413709Y-66592938D01*
X112362960Y-66530713D01*
X112362957Y-66530710D01*
X112359065Y-66525938D01*
X112352724Y-66520692D01*
X112211425Y-66403799D01*
X112211421Y-66403797D01*
X112206675Y-66399870D01*
X112032701Y-66305802D01*
X111843768Y-66247318D01*
X111837643Y-66246674D01*
X111837642Y-66246674D01*
X111653204Y-66227289D01*
X111653202Y-66227289D01*
X111647075Y-66226645D01*
X111564576Y-66234153D01*
X111456251Y-66244011D01*
X111456248Y-66244012D01*
X111450112Y-66244570D01*
X111444206Y-66246308D01*
X111444202Y-66246309D01*
X111339076Y-66277249D01*
X111260381Y-66300410D01*
X111254923Y-66303263D01*
X111254919Y-66303265D01*
X111164147Y-66350720D01*
X111085110Y-66392040D01*
X110930975Y-66515968D01*
X110803846Y-66667474D01*
X110800879Y-66672872D01*
X110800875Y-66672877D01*
X110798237Y-66677676D01*
X110708567Y-66840787D01*
X110706706Y-66846654D01*
X110706705Y-66846656D01*
X110691540Y-66894463D01*
X110648765Y-67029306D01*
X110633237Y-67167743D01*
X110628421Y-67210679D01*
X110600950Y-67276146D01*
X110592301Y-67285729D01*
X108659480Y-69218550D01*
X108653215Y-69224404D01*
X108609615Y-69262439D01*
X108605248Y-69268653D01*
X108572872Y-69314719D01*
X108568939Y-69320014D01*
X108529524Y-69370282D01*
X108526400Y-69377202D01*
X108525020Y-69379480D01*
X108516643Y-69394165D01*
X108515378Y-69396525D01*
X108511010Y-69402739D01*
X108508250Y-69409818D01*
X108508249Y-69409820D01*
X108487798Y-69462275D01*
X108485247Y-69468344D01*
X108458955Y-69526573D01*
X108457571Y-69534040D01*
X108456770Y-69536595D01*
X108452141Y-69552848D01*
X108451478Y-69555428D01*
X108448718Y-69562509D01*
X108447727Y-69570040D01*
X108447726Y-69570042D01*
X108440379Y-69625852D01*
X108439348Y-69632359D01*
X108427704Y-69695186D01*
X108428141Y-69702766D01*
X108428141Y-69702767D01*
X108431291Y-69757392D01*
X108431500Y-69764646D01*
X108431500Y-71961088D01*
X108431208Y-71969658D01*
X108427275Y-72027352D01*
X105495483Y-72027352D01*
X105503729Y-71970000D01*
X105503729Y-71197581D01*
X105503925Y-71190548D01*
X105506514Y-71144243D01*
X105506514Y-71144238D01*
X105506704Y-71140840D01*
X105503902Y-71087377D01*
X105503729Y-71080782D01*
X105503729Y-70270000D01*
X105498500Y-70196889D01*
X105457304Y-70056589D01*
X105407388Y-69978918D01*
X105383122Y-69941159D01*
X105383120Y-69941156D01*
X105378250Y-69933579D01*
X105284102Y-69851999D01*
X105274555Y-69843726D01*
X105274552Y-69843724D01*
X105267743Y-69837824D01*
X105134734Y-69777081D01*
X104990000Y-69756271D01*
X102234500Y-69756271D01*
X102166379Y-69736269D01*
X102119886Y-69682613D01*
X102108500Y-69630271D01*
X102108500Y-67529729D01*
X102128502Y-67461608D01*
X102182158Y-67415115D01*
X102234500Y-67403729D01*
X104990000Y-67403729D01*
X105021986Y-67401441D01*
X105056373Y-67398982D01*
X105056374Y-67398982D01*
X105063111Y-67398500D01*
X105142618Y-67375155D01*
X105194765Y-67359843D01*
X105194767Y-67359842D01*
X105203411Y-67357304D01*
X105242730Y-67332035D01*
X105318841Y-67283122D01*
X105318844Y-67283120D01*
X105326421Y-67278250D01*
X105390132Y-67204724D01*
X105416274Y-67174555D01*
X105416276Y-67174552D01*
X105422176Y-67167743D01*
X105482919Y-67034734D01*
X105503729Y-66890000D01*
X105503729Y-66117581D01*
X105503925Y-66110548D01*
X105506514Y-66064243D01*
X105506514Y-66064238D01*
X105506704Y-66060840D01*
X105503902Y-66007377D01*
X105503729Y-66000782D01*
X105503729Y-65190000D01*
X105498500Y-65116889D01*
X105457304Y-64976589D01*
X105392194Y-64875276D01*
X105383122Y-64861159D01*
X105383120Y-64861156D01*
X105378250Y-64853579D01*
X105371440Y-64847678D01*
X105274555Y-64763726D01*
X105274552Y-64763724D01*
X105267743Y-64757824D01*
X105134734Y-64697081D01*
X104990000Y-64676271D01*
X102234500Y-64676271D01*
X102166379Y-64656269D01*
X102119886Y-64602613D01*
X102108500Y-64550271D01*
X102108500Y-62864500D01*
X102128502Y-62796379D01*
X102182158Y-62749886D01*
X102234500Y-62738500D01*
X128905500Y-62738500D01*
X128973621Y-62758502D01*
G37*
G04 #@! TD.AperFunction*
M02*
