G04 #@! TF.GenerationSoftware,KiCad,Pcbnew,(6.0.8)*
G04 #@! TF.CreationDate,2023-05-10T13:59:01+02:00*
G04 #@! TF.ProjectId,02_Batt_Alim,30325f42-6174-4745-9f41-6c696d2e6b69,rev?*
G04 #@! TF.SameCoordinates,Original*
G04 #@! TF.FileFunction,Legend,Bot*
G04 #@! TF.FilePolarity,Positive*
%FSLAX46Y46*%
G04 Gerber Fmt 4.6, Leading zero omitted, Abs format (unit mm)*
G04 Created by KiCad (PCBNEW (6.0.8)) date 2023-05-10 13:59:01*
%MOMM*%
%LPD*%
G01*
G04 APERTURE LIST*
G04 Aperture macros list*
%AMRoundRect*
0 Rectangle with rounded corners*
0 $1 Rounding radius*
0 $2 $3 $4 $5 $6 $7 $8 $9 X,Y pos of 4 corners*
0 Add a 4 corners polygon primitive as box body*
4,1,4,$2,$3,$4,$5,$6,$7,$8,$9,$2,$3,0*
0 Add four circle primitives for the rounded corners*
1,1,$1+$1,$2,$3*
1,1,$1+$1,$4,$5*
1,1,$1+$1,$6,$7*
1,1,$1+$1,$8,$9*
0 Add four rect primitives between the rounded corners*
20,1,$1+$1,$2,$3,$4,$5,0*
20,1,$1+$1,$4,$5,$6,$7,0*
20,1,$1+$1,$6,$7,$8,$9,0*
20,1,$1+$1,$8,$9,$2,$3,0*%
%AMFreePoly0*
4,1,39,2.202791,0.899922,2.297540,0.894625,2.305656,0.893499,2.484833,0.853448,2.495057,0.849967,2.661454,0.772375,2.670692,0.766781,2.816546,0.655267,2.824367,0.647819,2.942872,0.507587,2.948911,0.498633,3.034539,0.336225,3.038515,0.326184,3.087271,0.149177,3.088997,0.138516,3.098606,-0.044831,3.098004,-0.055614,3.068017,-0.236748,3.065112,-0.247150,2.996929,-0.417619,
2.991859,-0.427155,2.888662,-0.579006,2.881662,-0.587231,2.748263,-0.713379,2.739661,-0.719908,2.582286,-0.814469,2.572482,-0.818999,2.398473,-0.877559,2.387925,-0.879879,2.205400,-0.899708,2.200000,-0.900000,-0.850000,-0.900000,-0.885355,-0.885355,-0.900000,-0.850000,-0.900000,0.850000,-0.885355,0.885355,-0.850000,0.900000,2.200000,0.900000,2.202791,0.899922,2.202791,0.899922,
$1*%
G04 Aperture macros list end*
%ADD10C,0.300000*%
%ADD11C,0.150000*%
%ADD12C,1.100000*%
%ADD13RoundRect,0.050000X1.100000X1.650000X-1.100000X1.650000X-1.100000X-1.650000X1.100000X-1.650000X0*%
%ADD14FreePoly0,180.000000*%
%ADD15C,1.624000*%
G04 APERTURE END LIST*
D10*
X127535771Y-82759357D02*
X127321485Y-82830785D01*
X127250057Y-82902214D01*
X127178628Y-83045071D01*
X127178628Y-83259357D01*
X127250057Y-83402214D01*
X127321485Y-83473642D01*
X127464342Y-83545071D01*
X128035771Y-83545071D01*
X128035771Y-82045071D01*
X127535771Y-82045071D01*
X127392914Y-82116500D01*
X127321485Y-82187928D01*
X127250057Y-82330785D01*
X127250057Y-82473642D01*
X127321485Y-82616500D01*
X127392914Y-82687928D01*
X127535771Y-82759357D01*
X128035771Y-82759357D01*
X125892914Y-83545071D02*
X125892914Y-82759357D01*
X125964342Y-82616500D01*
X126107200Y-82545071D01*
X126392914Y-82545071D01*
X126535771Y-82616500D01*
X125892914Y-83473642D02*
X126035771Y-83545071D01*
X126392914Y-83545071D01*
X126535771Y-83473642D01*
X126607200Y-83330785D01*
X126607200Y-83187928D01*
X126535771Y-83045071D01*
X126392914Y-82973642D01*
X126035771Y-82973642D01*
X125892914Y-82902214D01*
X125392914Y-82545071D02*
X124821485Y-82545071D01*
X125178628Y-82045071D02*
X125178628Y-83330785D01*
X125107200Y-83473642D01*
X124964342Y-83545071D01*
X124821485Y-83545071D01*
X124535771Y-82545071D02*
X123964342Y-82545071D01*
X124321485Y-82045071D02*
X124321485Y-83330785D01*
X124250057Y-83473642D01*
X124107200Y-83545071D01*
X123964342Y-83545071D01*
X123821485Y-83687928D02*
X122678628Y-83687928D01*
X122392914Y-83116500D02*
X121678628Y-83116500D01*
X122535771Y-83545071D02*
X122035771Y-82045071D01*
X121535771Y-83545071D01*
X120821485Y-83545071D02*
X120964342Y-83473642D01*
X121035771Y-83330785D01*
X121035771Y-82045071D01*
X120250057Y-83545071D02*
X120250057Y-82545071D01*
X120250057Y-82045071D02*
X120321485Y-82116500D01*
X120250057Y-82187928D01*
X120178628Y-82116500D01*
X120250057Y-82045071D01*
X120250057Y-82187928D01*
X119535771Y-83545071D02*
X119535771Y-82545071D01*
X119535771Y-82687928D02*
X119464342Y-82616500D01*
X119321485Y-82545071D01*
X119107200Y-82545071D01*
X118964342Y-82616500D01*
X118892914Y-82759357D01*
X118892914Y-83545071D01*
X118892914Y-82759357D02*
X118821485Y-82616500D01*
X118678628Y-82545071D01*
X118464342Y-82545071D01*
X118321485Y-82616500D01*
X118250057Y-82759357D01*
X118250057Y-83545071D01*
X117892914Y-83687928D02*
X116750057Y-83687928D01*
X115750057Y-82545071D02*
X115750057Y-83545071D01*
X116107200Y-81973642D02*
X116464342Y-83045071D01*
X115535771Y-83045071D01*
X114964342Y-83545071D02*
X114964342Y-82045071D01*
X114392914Y-82045071D01*
X114250057Y-82116500D01*
X114178628Y-82187928D01*
X114107200Y-82330785D01*
X114107200Y-82545071D01*
X114178628Y-82687928D01*
X114250057Y-82759357D01*
X114392914Y-82830785D01*
X114964342Y-82830785D01*
X128107200Y-84602928D02*
X128035771Y-84531500D01*
X127892914Y-84460071D01*
X127535771Y-84460071D01*
X127392914Y-84531500D01*
X127321485Y-84602928D01*
X127250057Y-84745785D01*
X127250057Y-84888642D01*
X127321485Y-85102928D01*
X128178628Y-85960071D01*
X127250057Y-85960071D01*
X126321485Y-84460071D02*
X126178628Y-84460071D01*
X126035771Y-84531500D01*
X125964342Y-84602928D01*
X125892914Y-84745785D01*
X125821485Y-85031500D01*
X125821485Y-85388642D01*
X125892914Y-85674357D01*
X125964342Y-85817214D01*
X126035771Y-85888642D01*
X126178628Y-85960071D01*
X126321485Y-85960071D01*
X126464342Y-85888642D01*
X126535771Y-85817214D01*
X126607200Y-85674357D01*
X126678628Y-85388642D01*
X126678628Y-85031500D01*
X126607200Y-84745785D01*
X126535771Y-84602928D01*
X126464342Y-84531500D01*
X126321485Y-84460071D01*
X125250057Y-84602928D02*
X125178628Y-84531500D01*
X125035771Y-84460071D01*
X124678628Y-84460071D01*
X124535771Y-84531500D01*
X124464342Y-84602928D01*
X124392914Y-84745785D01*
X124392914Y-84888642D01*
X124464342Y-85102928D01*
X125321485Y-85960071D01*
X124392914Y-85960071D01*
X123892914Y-84460071D02*
X122964342Y-84460071D01*
X123464342Y-85031500D01*
X123250057Y-85031500D01*
X123107200Y-85102928D01*
X123035771Y-85174357D01*
X122964342Y-85317214D01*
X122964342Y-85674357D01*
X123035771Y-85817214D01*
X123107200Y-85888642D01*
X123250057Y-85960071D01*
X123678628Y-85960071D01*
X123821485Y-85888642D01*
X123892914Y-85817214D01*
X121250057Y-84388642D02*
X122535771Y-86317214D01*
X120464342Y-84460071D02*
X120321485Y-84460071D01*
X120178628Y-84531500D01*
X120107200Y-84602928D01*
X120035771Y-84745785D01*
X119964342Y-85031500D01*
X119964342Y-85388642D01*
X120035771Y-85674357D01*
X120107200Y-85817214D01*
X120178628Y-85888642D01*
X120321485Y-85960071D01*
X120464342Y-85960071D01*
X120607200Y-85888642D01*
X120678628Y-85817214D01*
X120750057Y-85674357D01*
X120821485Y-85388642D01*
X120821485Y-85031500D01*
X120750057Y-84745785D01*
X120678628Y-84602928D01*
X120607200Y-84531500D01*
X120464342Y-84460071D01*
X118607200Y-84460071D02*
X119321485Y-84460071D01*
X119392914Y-85174357D01*
X119321485Y-85102928D01*
X119178628Y-85031500D01*
X118821485Y-85031500D01*
X118678628Y-85102928D01*
X118607200Y-85174357D01*
X118535771Y-85317214D01*
X118535771Y-85674357D01*
X118607200Y-85817214D01*
X118678628Y-85888642D01*
X118821485Y-85960071D01*
X119178628Y-85960071D01*
X119321485Y-85888642D01*
X119392914Y-85817214D01*
X116821485Y-84388642D02*
X118107200Y-86317214D01*
X115535771Y-85960071D02*
X116392914Y-85960071D01*
X115964342Y-85960071D02*
X115964342Y-84460071D01*
X116107200Y-84674357D01*
X116250057Y-84817214D01*
X116392914Y-84888642D01*
X114607200Y-84460071D02*
X114464342Y-84460071D01*
X114321485Y-84531500D01*
X114250057Y-84602928D01*
X114178628Y-84745785D01*
X114107200Y-85031500D01*
X114107200Y-85388642D01*
X114178628Y-85674357D01*
X114250057Y-85817214D01*
X114321485Y-85888642D01*
X114464342Y-85960071D01*
X114607200Y-85960071D01*
X114750057Y-85888642D01*
X114821485Y-85817214D01*
X114892914Y-85674357D01*
X114964342Y-85388642D01*
X114964342Y-85031500D01*
X114892914Y-84745785D01*
X114821485Y-84602928D01*
X114750057Y-84531500D01*
X114607200Y-84460071D01*
D11*
X106730476Y-73292380D02*
X107206666Y-73292380D01*
X107254285Y-73768571D01*
X107206666Y-73720952D01*
X107111428Y-73673333D01*
X106873333Y-73673333D01*
X106778095Y-73720952D01*
X106730476Y-73768571D01*
X106682857Y-73863809D01*
X106682857Y-74101904D01*
X106730476Y-74197142D01*
X106778095Y-74244761D01*
X106873333Y-74292380D01*
X107111428Y-74292380D01*
X107206666Y-74244761D01*
X107254285Y-74197142D01*
X106397142Y-73292380D02*
X106063809Y-74292380D01*
X105730476Y-73292380D01*
X108697142Y-70968571D02*
X108554285Y-71016190D01*
X108506666Y-71063809D01*
X108459047Y-71159047D01*
X108459047Y-71301904D01*
X108506666Y-71397142D01*
X108554285Y-71444761D01*
X108649523Y-71492380D01*
X109030476Y-71492380D01*
X109030476Y-70492380D01*
X108697142Y-70492380D01*
X108601904Y-70540000D01*
X108554285Y-70587619D01*
X108506666Y-70682857D01*
X108506666Y-70778095D01*
X108554285Y-70873333D01*
X108601904Y-70920952D01*
X108697142Y-70968571D01*
X109030476Y-70968571D01*
X108078095Y-71206666D02*
X107601904Y-71206666D01*
X108173333Y-71492380D02*
X107840000Y-70492380D01*
X107506666Y-71492380D01*
X107316190Y-70492380D02*
X106744761Y-70492380D01*
X107030476Y-71492380D02*
X107030476Y-70492380D01*
X106411428Y-71111428D02*
X105649523Y-71111428D01*
X106030476Y-71492380D02*
X106030476Y-70730476D01*
X107801904Y-68040000D02*
X107897142Y-67992380D01*
X108040000Y-67992380D01*
X108182857Y-68040000D01*
X108278095Y-68135238D01*
X108325714Y-68230476D01*
X108373333Y-68420952D01*
X108373333Y-68563809D01*
X108325714Y-68754285D01*
X108278095Y-68849523D01*
X108182857Y-68944761D01*
X108040000Y-68992380D01*
X107944761Y-68992380D01*
X107801904Y-68944761D01*
X107754285Y-68897142D01*
X107754285Y-68563809D01*
X107944761Y-68563809D01*
X107325714Y-68992380D02*
X107325714Y-67992380D01*
X106754285Y-68992380D01*
X106754285Y-67992380D01*
X106278095Y-68992380D02*
X106278095Y-67992380D01*
X106040000Y-67992380D01*
X105897142Y-68040000D01*
X105801904Y-68135238D01*
X105754285Y-68230476D01*
X105706666Y-68420952D01*
X105706666Y-68563809D01*
X105754285Y-68754285D01*
X105801904Y-68849523D01*
X105897142Y-68944761D01*
X106040000Y-68992380D01*
X106278095Y-68992380D01*
X109573333Y-65492380D02*
X109240000Y-66492380D01*
X108906666Y-65492380D01*
X108811428Y-66587619D02*
X108049523Y-66587619D01*
X107430476Y-66444761D02*
X107525714Y-66492380D01*
X107716190Y-66492380D01*
X107811428Y-66444761D01*
X107859047Y-66349523D01*
X107859047Y-65968571D01*
X107811428Y-65873333D01*
X107716190Y-65825714D01*
X107525714Y-65825714D01*
X107430476Y-65873333D01*
X107382857Y-65968571D01*
X107382857Y-66063809D01*
X107859047Y-66159047D01*
X107049523Y-66492380D02*
X106525714Y-65825714D01*
X107049523Y-65825714D02*
X106525714Y-66492380D01*
X106287619Y-65825714D02*
X105906666Y-65825714D01*
X106144761Y-65492380D02*
X106144761Y-66349523D01*
X106097142Y-66444761D01*
X106001904Y-66492380D01*
X105906666Y-66492380D01*
%LPC*%
D12*
X115275000Y-70490000D03*
X114005000Y-70490000D03*
X115275000Y-69347000D03*
X114005000Y-69347000D03*
D13*
X114640000Y-70490000D03*
D12*
X115275000Y-71633000D03*
X114005000Y-71633000D03*
D14*
X104140000Y-73660000D03*
D15*
X101600000Y-73660000D03*
D14*
X104140000Y-71120000D03*
D15*
X101600000Y-71120000D03*
D14*
X104140000Y-68580000D03*
D15*
X101600000Y-68580000D03*
D14*
X104140000Y-66040000D03*
D15*
X101600000Y-66040000D03*
M02*
