%TF.GenerationSoftware,KiCad,Pcbnew,(6.0.8)*%
%TF.CreationDate,2023-05-10T13:59:26+02:00*%
%TF.ProjectId,02_Batt_Alim,30325f42-6174-4745-9f41-6c696d2e6b69,rev?*%
%TF.SameCoordinates,Original*%
%TF.FileFunction,Drillmap*%
%TF.FilePolarity,Positive*%
%FSLAX45Y45*%
G04 Gerber Fmt 4.5, Leading zero omitted, Abs format (unit mm)*
G04 Created by KiCad (PCBNEW (6.0.8)) date 2023-05-10 13:59:26*
%MOMM*%
%LPD*%
G01*
G04 APERTURE LIST*
%ADD10C,0.050000*%
%ADD11C,0.200000*%
%ADD12C,0.060000*%
%ADD13C,0.076200*%
%ADD14C,0.100000*%
G04 APERTURE END LIST*
D10*
X12954000Y-8763000D02*
X10160000Y-8763000D01*
X10160000Y-6223000D02*
X10160000Y-6477000D01*
X10160000Y-6223000D02*
X12954000Y-6223000D01*
X10160000Y-7493000D02*
X10160000Y-8763000D01*
X10160000Y-7493000D02*
X10160000Y-6477000D01*
X12954000Y-6223000D02*
X12954000Y-8763000D01*
D11*
D12*
X10284000Y-8644000D02*
X10344000Y-8704000D01*
X10344000Y-8644000D02*
X10284000Y-8704000D01*
X10434000Y-8644000D02*
X10494000Y-8704000D01*
X10494000Y-8644000D02*
X10434000Y-8704000D01*
X10584000Y-8644000D02*
X10644000Y-8704000D01*
X10644000Y-8644000D02*
X10584000Y-8704000D01*
X10594000Y-6854000D02*
X10654000Y-6914000D01*
X10654000Y-6854000D02*
X10594000Y-6914000D01*
X10734000Y-8644000D02*
X10794000Y-8704000D01*
X10794000Y-8644000D02*
X10734000Y-8704000D01*
X10834000Y-6744000D02*
X10894000Y-6804000D01*
X10894000Y-6744000D02*
X10834000Y-6804000D01*
X11009000Y-7094000D02*
X11069000Y-7154000D01*
X11069000Y-7094000D02*
X11009000Y-7154000D01*
X11009000Y-7219000D02*
X11069000Y-7279000D01*
X11069000Y-7219000D02*
X11009000Y-7279000D01*
X11014000Y-6973424D02*
X11074000Y-7033424D01*
X11074000Y-6973424D02*
X11014000Y-7033424D01*
X11134000Y-6694000D02*
X11194000Y-6754000D01*
X11194000Y-6694000D02*
X11134000Y-6754000D01*
X11521920Y-7935440D02*
X11581920Y-7995440D01*
X11581920Y-7935440D02*
X11521920Y-7995440D01*
X11575260Y-8042120D02*
X11635260Y-8102120D01*
X11635260Y-8042120D02*
X11575260Y-8102120D01*
X11638760Y-7940520D02*
X11698760Y-8000520D01*
X11698760Y-7940520D02*
X11638760Y-8000520D01*
X12134060Y-7038820D02*
X12194060Y-7098820D01*
X12194060Y-7038820D02*
X12134060Y-7098820D01*
X12306780Y-7038820D02*
X12366780Y-7098820D01*
X12366780Y-7038820D02*
X12306780Y-7098820D01*
X11430500Y-6934700D02*
G75*
G03*
X11430500Y-6934700I-30000J0D01*
G01*
X11430500Y-7049000D02*
G75*
G03*
X11430500Y-7049000I-30000J0D01*
G01*
X11430500Y-7163300D02*
G75*
G03*
X11430500Y-7163300I-30000J0D01*
G01*
X11557500Y-6934700D02*
G75*
G03*
X11557500Y-6934700I-30000J0D01*
G01*
X11557500Y-7049000D02*
G75*
G03*
X11557500Y-7049000I-30000J0D01*
G01*
X11557500Y-7163300D02*
G75*
G03*
X11557500Y-7163300I-30000J0D01*
G01*
D13*
X10160000Y-6565900D02*
X10160000Y-6642100D01*
X10121900Y-6604000D02*
X10198100Y-6604000D01*
X10160000Y-6819900D02*
X10160000Y-6896100D01*
X10121900Y-6858000D02*
X10198100Y-6858000D01*
X10160000Y-7073900D02*
X10160000Y-7150100D01*
X10121900Y-7112000D02*
X10198100Y-7112000D01*
X10160000Y-7327900D02*
X10160000Y-7404100D01*
X10121900Y-7366000D02*
X10198100Y-7366000D01*
D14*
X10449356Y-6639356D02*
X10449356Y-6568644D01*
X10378644Y-6568644D01*
X10378644Y-6639356D01*
X10449356Y-6639356D01*
X10449356Y-6893356D02*
X10449356Y-6822644D01*
X10378644Y-6822644D01*
X10378644Y-6893356D01*
X10449356Y-6893356D01*
X10449356Y-7147356D02*
X10449356Y-7076644D01*
X10378644Y-7076644D01*
X10378644Y-7147356D01*
X10449356Y-7147356D01*
X10449356Y-7401356D02*
X10449356Y-7330644D01*
X10378644Y-7330644D01*
X10378644Y-7401356D01*
X10449356Y-7401356D01*
D11*
X10415119Y-9075976D02*
X10415119Y-8875976D01*
X10462738Y-8875976D01*
X10491310Y-8885500D01*
X10510357Y-8904548D01*
X10519881Y-8923595D01*
X10529405Y-8961690D01*
X10529405Y-8990262D01*
X10519881Y-9028357D01*
X10510357Y-9047405D01*
X10491310Y-9066452D01*
X10462738Y-9075976D01*
X10415119Y-9075976D01*
X10615119Y-9075976D02*
X10615119Y-8942643D01*
X10615119Y-8980738D02*
X10624643Y-8961690D01*
X10634167Y-8952167D01*
X10653214Y-8942643D01*
X10672262Y-8942643D01*
X10738929Y-9075976D02*
X10738929Y-8942643D01*
X10738929Y-8875976D02*
X10729405Y-8885500D01*
X10738929Y-8895024D01*
X10748452Y-8885500D01*
X10738929Y-8875976D01*
X10738929Y-8895024D01*
X10862738Y-9075976D02*
X10843690Y-9066452D01*
X10834167Y-9047405D01*
X10834167Y-8875976D01*
X10967500Y-9075976D02*
X10948452Y-9066452D01*
X10938929Y-9047405D01*
X10938929Y-8875976D01*
X11196071Y-9075976D02*
X11196071Y-8875976D01*
X11262738Y-9018833D01*
X11329405Y-8875976D01*
X11329405Y-9075976D01*
X11510357Y-9075976D02*
X11510357Y-8971214D01*
X11500833Y-8952167D01*
X11481786Y-8942643D01*
X11443690Y-8942643D01*
X11424643Y-8952167D01*
X11510357Y-9066452D02*
X11491309Y-9075976D01*
X11443690Y-9075976D01*
X11424643Y-9066452D01*
X11415119Y-9047405D01*
X11415119Y-9028357D01*
X11424643Y-9009310D01*
X11443690Y-8999786D01*
X11491309Y-8999786D01*
X11510357Y-8990262D01*
X11605595Y-8942643D02*
X11605595Y-9142643D01*
X11605595Y-8952167D02*
X11624643Y-8942643D01*
X11662738Y-8942643D01*
X11681786Y-8952167D01*
X11691309Y-8961690D01*
X11700833Y-8980738D01*
X11700833Y-9037881D01*
X11691309Y-9056929D01*
X11681786Y-9066452D01*
X11662738Y-9075976D01*
X11624643Y-9075976D01*
X11605595Y-9066452D01*
X11786548Y-9056929D02*
X11796071Y-9066452D01*
X11786548Y-9075976D01*
X11777024Y-9066452D01*
X11786548Y-9056929D01*
X11786548Y-9075976D01*
X11786548Y-8952167D02*
X11796071Y-8961690D01*
X11786548Y-8971214D01*
X11777024Y-8961690D01*
X11786548Y-8952167D01*
X11786548Y-8971214D01*
D12*
X10097500Y-9375500D02*
X10157500Y-9435500D01*
X10157500Y-9375500D02*
X10097500Y-9435500D01*
D11*
X10453214Y-9295976D02*
X10472262Y-9295976D01*
X10491310Y-9305500D01*
X10500833Y-9315024D01*
X10510357Y-9334071D01*
X10519881Y-9372167D01*
X10519881Y-9419786D01*
X10510357Y-9457881D01*
X10500833Y-9476929D01*
X10491310Y-9486452D01*
X10472262Y-9495976D01*
X10453214Y-9495976D01*
X10434167Y-9486452D01*
X10424643Y-9476929D01*
X10415119Y-9457881D01*
X10405595Y-9419786D01*
X10405595Y-9372167D01*
X10415119Y-9334071D01*
X10424643Y-9315024D01*
X10434167Y-9305500D01*
X10453214Y-9295976D01*
X10605595Y-9476929D02*
X10615119Y-9486452D01*
X10605595Y-9495976D01*
X10596071Y-9486452D01*
X10605595Y-9476929D01*
X10605595Y-9495976D01*
X10786548Y-9295976D02*
X10748452Y-9295976D01*
X10729405Y-9305500D01*
X10719881Y-9315024D01*
X10700833Y-9343595D01*
X10691310Y-9381690D01*
X10691310Y-9457881D01*
X10700833Y-9476929D01*
X10710357Y-9486452D01*
X10729405Y-9495976D01*
X10767500Y-9495976D01*
X10786548Y-9486452D01*
X10796071Y-9476929D01*
X10805595Y-9457881D01*
X10805595Y-9410262D01*
X10796071Y-9391214D01*
X10786548Y-9381690D01*
X10767500Y-9372167D01*
X10729405Y-9372167D01*
X10710357Y-9381690D01*
X10700833Y-9391214D01*
X10691310Y-9410262D01*
X10929405Y-9295976D02*
X10948452Y-9295976D01*
X10967500Y-9305500D01*
X10977024Y-9315024D01*
X10986548Y-9334071D01*
X10996071Y-9372167D01*
X10996071Y-9419786D01*
X10986548Y-9457881D01*
X10977024Y-9476929D01*
X10967500Y-9486452D01*
X10948452Y-9495976D01*
X10929405Y-9495976D01*
X10910357Y-9486452D01*
X10900833Y-9476929D01*
X10891310Y-9457881D01*
X10881786Y-9419786D01*
X10881786Y-9372167D01*
X10891310Y-9334071D01*
X10900833Y-9315024D01*
X10910357Y-9305500D01*
X10929405Y-9295976D01*
X11119881Y-9295976D02*
X11138929Y-9295976D01*
X11157976Y-9305500D01*
X11167500Y-9315024D01*
X11177024Y-9334071D01*
X11186548Y-9372167D01*
X11186548Y-9419786D01*
X11177024Y-9457881D01*
X11167500Y-9476929D01*
X11157976Y-9486452D01*
X11138929Y-9495976D01*
X11119881Y-9495976D01*
X11100833Y-9486452D01*
X11091310Y-9476929D01*
X11081786Y-9457881D01*
X11072262Y-9419786D01*
X11072262Y-9372167D01*
X11081786Y-9334071D01*
X11091310Y-9315024D01*
X11100833Y-9305500D01*
X11119881Y-9295976D01*
X11272262Y-9495976D02*
X11272262Y-9362643D01*
X11272262Y-9381690D02*
X11281786Y-9372167D01*
X11300833Y-9362643D01*
X11329405Y-9362643D01*
X11348452Y-9372167D01*
X11357976Y-9391214D01*
X11357976Y-9495976D01*
X11357976Y-9391214D02*
X11367500Y-9372167D01*
X11386548Y-9362643D01*
X11415119Y-9362643D01*
X11434167Y-9372167D01*
X11443690Y-9391214D01*
X11443690Y-9495976D01*
X11538928Y-9495976D02*
X11538928Y-9362643D01*
X11538928Y-9381690D02*
X11548452Y-9372167D01*
X11567500Y-9362643D01*
X11596071Y-9362643D01*
X11615119Y-9372167D01*
X11624643Y-9391214D01*
X11624643Y-9495976D01*
X11624643Y-9391214D02*
X11634167Y-9372167D01*
X11653214Y-9362643D01*
X11681786Y-9362643D01*
X11700833Y-9372167D01*
X11710357Y-9391214D01*
X11710357Y-9495976D01*
X12100833Y-9286452D02*
X11929405Y-9543595D01*
X12357976Y-9295976D02*
X12377024Y-9295976D01*
X12396071Y-9305500D01*
X12405595Y-9315024D01*
X12415119Y-9334071D01*
X12424643Y-9372167D01*
X12424643Y-9419786D01*
X12415119Y-9457881D01*
X12405595Y-9476929D01*
X12396071Y-9486452D01*
X12377024Y-9495976D01*
X12357976Y-9495976D01*
X12338928Y-9486452D01*
X12329405Y-9476929D01*
X12319881Y-9457881D01*
X12310357Y-9419786D01*
X12310357Y-9372167D01*
X12319881Y-9334071D01*
X12329405Y-9315024D01*
X12338928Y-9305500D01*
X12357976Y-9295976D01*
X12510357Y-9476929D02*
X12519881Y-9486452D01*
X12510357Y-9495976D01*
X12500833Y-9486452D01*
X12510357Y-9476929D01*
X12510357Y-9495976D01*
X12643690Y-9295976D02*
X12662738Y-9295976D01*
X12681786Y-9305500D01*
X12691309Y-9315024D01*
X12700833Y-9334071D01*
X12710357Y-9372167D01*
X12710357Y-9419786D01*
X12700833Y-9457881D01*
X12691309Y-9476929D01*
X12681786Y-9486452D01*
X12662738Y-9495976D01*
X12643690Y-9495976D01*
X12624643Y-9486452D01*
X12615119Y-9476929D01*
X12605595Y-9457881D01*
X12596071Y-9419786D01*
X12596071Y-9372167D01*
X12605595Y-9334071D01*
X12615119Y-9315024D01*
X12624643Y-9305500D01*
X12643690Y-9295976D01*
X12786548Y-9315024D02*
X12796071Y-9305500D01*
X12815119Y-9295976D01*
X12862738Y-9295976D01*
X12881786Y-9305500D01*
X12891309Y-9315024D01*
X12900833Y-9334071D01*
X12900833Y-9353119D01*
X12891309Y-9381690D01*
X12777024Y-9495976D01*
X12900833Y-9495976D01*
X12967500Y-9295976D02*
X13091309Y-9295976D01*
X13024643Y-9372167D01*
X13053214Y-9372167D01*
X13072262Y-9381690D01*
X13081786Y-9391214D01*
X13091309Y-9410262D01*
X13091309Y-9457881D01*
X13081786Y-9476929D01*
X13072262Y-9486452D01*
X13053214Y-9495976D01*
X12996071Y-9495976D01*
X12977024Y-9486452D01*
X12967500Y-9476929D01*
X13262738Y-9295976D02*
X13224643Y-9295976D01*
X13205595Y-9305500D01*
X13196071Y-9315024D01*
X13177024Y-9343595D01*
X13167500Y-9381690D01*
X13167500Y-9457881D01*
X13177024Y-9476929D01*
X13186548Y-9486452D01*
X13205595Y-9495976D01*
X13243690Y-9495976D01*
X13262738Y-9486452D01*
X13272262Y-9476929D01*
X13281786Y-9457881D01*
X13281786Y-9410262D01*
X13272262Y-9391214D01*
X13262738Y-9381690D01*
X13243690Y-9372167D01*
X13205595Y-9372167D01*
X13186548Y-9381690D01*
X13177024Y-9391214D01*
X13167500Y-9410262D01*
X13357976Y-9295976D02*
X13357976Y-9334071D01*
X13434167Y-9295976D02*
X13434167Y-9334071D01*
X13729405Y-9572167D02*
X13719881Y-9562643D01*
X13700833Y-9534071D01*
X13691309Y-9515024D01*
X13681786Y-9486452D01*
X13672262Y-9438833D01*
X13672262Y-9400738D01*
X13681786Y-9353119D01*
X13691309Y-9324548D01*
X13700833Y-9305500D01*
X13719881Y-9276929D01*
X13729405Y-9267405D01*
X13910357Y-9495976D02*
X13796071Y-9495976D01*
X13853214Y-9495976D02*
X13853214Y-9295976D01*
X13834167Y-9324548D01*
X13815119Y-9343595D01*
X13796071Y-9353119D01*
X14091309Y-9295976D02*
X13996071Y-9295976D01*
X13986548Y-9391214D01*
X13996071Y-9381690D01*
X14015119Y-9372167D01*
X14062738Y-9372167D01*
X14081786Y-9381690D01*
X14091309Y-9391214D01*
X14100833Y-9410262D01*
X14100833Y-9457881D01*
X14091309Y-9476929D01*
X14081786Y-9486452D01*
X14062738Y-9495976D01*
X14015119Y-9495976D01*
X13996071Y-9486452D01*
X13986548Y-9476929D01*
X14338928Y-9495976D02*
X14338928Y-9295976D01*
X14424643Y-9495976D02*
X14424643Y-9391214D01*
X14415119Y-9372167D01*
X14396071Y-9362643D01*
X14367500Y-9362643D01*
X14348452Y-9372167D01*
X14338928Y-9381690D01*
X14548452Y-9495976D02*
X14529405Y-9486452D01*
X14519881Y-9476929D01*
X14510357Y-9457881D01*
X14510357Y-9400738D01*
X14519881Y-9381690D01*
X14529405Y-9372167D01*
X14548452Y-9362643D01*
X14577024Y-9362643D01*
X14596071Y-9372167D01*
X14605595Y-9381690D01*
X14615119Y-9400738D01*
X14615119Y-9457881D01*
X14605595Y-9476929D01*
X14596071Y-9486452D01*
X14577024Y-9495976D01*
X14548452Y-9495976D01*
X14729405Y-9495976D02*
X14710357Y-9486452D01*
X14700833Y-9467405D01*
X14700833Y-9295976D01*
X14881786Y-9486452D02*
X14862738Y-9495976D01*
X14824643Y-9495976D01*
X14805595Y-9486452D01*
X14796071Y-9467405D01*
X14796071Y-9391214D01*
X14805595Y-9372167D01*
X14824643Y-9362643D01*
X14862738Y-9362643D01*
X14881786Y-9372167D01*
X14891309Y-9391214D01*
X14891309Y-9410262D01*
X14796071Y-9429310D01*
X14967500Y-9486452D02*
X14986548Y-9495976D01*
X15024643Y-9495976D01*
X15043690Y-9486452D01*
X15053214Y-9467405D01*
X15053214Y-9457881D01*
X15043690Y-9438833D01*
X15024643Y-9429310D01*
X14996071Y-9429310D01*
X14977024Y-9419786D01*
X14967500Y-9400738D01*
X14967500Y-9391214D01*
X14977024Y-9372167D01*
X14996071Y-9362643D01*
X15024643Y-9362643D01*
X15043690Y-9372167D01*
X15119881Y-9572167D02*
X15129405Y-9562643D01*
X15148452Y-9534071D01*
X15157976Y-9515024D01*
X15167500Y-9486452D01*
X15177024Y-9438833D01*
X15177024Y-9400738D01*
X15167500Y-9353119D01*
X15157976Y-9324548D01*
X15148452Y-9305500D01*
X15129405Y-9276929D01*
X15119881Y-9267405D01*
D12*
X10157500Y-9669500D02*
G75*
G03*
X10157500Y-9669500I-30000J0D01*
G01*
D11*
X10453214Y-9559976D02*
X10472262Y-9559976D01*
X10491310Y-9569500D01*
X10500833Y-9579024D01*
X10510357Y-9598071D01*
X10519881Y-9636167D01*
X10519881Y-9683786D01*
X10510357Y-9721881D01*
X10500833Y-9740929D01*
X10491310Y-9750452D01*
X10472262Y-9759976D01*
X10453214Y-9759976D01*
X10434167Y-9750452D01*
X10424643Y-9740929D01*
X10415119Y-9721881D01*
X10405595Y-9683786D01*
X10405595Y-9636167D01*
X10415119Y-9598071D01*
X10424643Y-9579024D01*
X10434167Y-9569500D01*
X10453214Y-9559976D01*
X10605595Y-9740929D02*
X10615119Y-9750452D01*
X10605595Y-9759976D01*
X10596071Y-9750452D01*
X10605595Y-9740929D01*
X10605595Y-9759976D01*
X10786548Y-9559976D02*
X10748452Y-9559976D01*
X10729405Y-9569500D01*
X10719881Y-9579024D01*
X10700833Y-9607595D01*
X10691310Y-9645690D01*
X10691310Y-9721881D01*
X10700833Y-9740929D01*
X10710357Y-9750452D01*
X10729405Y-9759976D01*
X10767500Y-9759976D01*
X10786548Y-9750452D01*
X10796071Y-9740929D01*
X10805595Y-9721881D01*
X10805595Y-9674262D01*
X10796071Y-9655214D01*
X10786548Y-9645690D01*
X10767500Y-9636167D01*
X10729405Y-9636167D01*
X10710357Y-9645690D01*
X10700833Y-9655214D01*
X10691310Y-9674262D01*
X10929405Y-9559976D02*
X10948452Y-9559976D01*
X10967500Y-9569500D01*
X10977024Y-9579024D01*
X10986548Y-9598071D01*
X10996071Y-9636167D01*
X10996071Y-9683786D01*
X10986548Y-9721881D01*
X10977024Y-9740929D01*
X10967500Y-9750452D01*
X10948452Y-9759976D01*
X10929405Y-9759976D01*
X10910357Y-9750452D01*
X10900833Y-9740929D01*
X10891310Y-9721881D01*
X10881786Y-9683786D01*
X10881786Y-9636167D01*
X10891310Y-9598071D01*
X10900833Y-9579024D01*
X10910357Y-9569500D01*
X10929405Y-9559976D01*
X11119881Y-9559976D02*
X11138929Y-9559976D01*
X11157976Y-9569500D01*
X11167500Y-9579024D01*
X11177024Y-9598071D01*
X11186548Y-9636167D01*
X11186548Y-9683786D01*
X11177024Y-9721881D01*
X11167500Y-9740929D01*
X11157976Y-9750452D01*
X11138929Y-9759976D01*
X11119881Y-9759976D01*
X11100833Y-9750452D01*
X11091310Y-9740929D01*
X11081786Y-9721881D01*
X11072262Y-9683786D01*
X11072262Y-9636167D01*
X11081786Y-9598071D01*
X11091310Y-9579024D01*
X11100833Y-9569500D01*
X11119881Y-9559976D01*
X11272262Y-9759976D02*
X11272262Y-9626643D01*
X11272262Y-9645690D02*
X11281786Y-9636167D01*
X11300833Y-9626643D01*
X11329405Y-9626643D01*
X11348452Y-9636167D01*
X11357976Y-9655214D01*
X11357976Y-9759976D01*
X11357976Y-9655214D02*
X11367500Y-9636167D01*
X11386548Y-9626643D01*
X11415119Y-9626643D01*
X11434167Y-9636167D01*
X11443690Y-9655214D01*
X11443690Y-9759976D01*
X11538928Y-9759976D02*
X11538928Y-9626643D01*
X11538928Y-9645690D02*
X11548452Y-9636167D01*
X11567500Y-9626643D01*
X11596071Y-9626643D01*
X11615119Y-9636167D01*
X11624643Y-9655214D01*
X11624643Y-9759976D01*
X11624643Y-9655214D02*
X11634167Y-9636167D01*
X11653214Y-9626643D01*
X11681786Y-9626643D01*
X11700833Y-9636167D01*
X11710357Y-9655214D01*
X11710357Y-9759976D01*
X12100833Y-9550452D02*
X11929405Y-9807595D01*
X12357976Y-9559976D02*
X12377024Y-9559976D01*
X12396071Y-9569500D01*
X12405595Y-9579024D01*
X12415119Y-9598071D01*
X12424643Y-9636167D01*
X12424643Y-9683786D01*
X12415119Y-9721881D01*
X12405595Y-9740929D01*
X12396071Y-9750452D01*
X12377024Y-9759976D01*
X12357976Y-9759976D01*
X12338928Y-9750452D01*
X12329405Y-9740929D01*
X12319881Y-9721881D01*
X12310357Y-9683786D01*
X12310357Y-9636167D01*
X12319881Y-9598071D01*
X12329405Y-9579024D01*
X12338928Y-9569500D01*
X12357976Y-9559976D01*
X12510357Y-9740929D02*
X12519881Y-9750452D01*
X12510357Y-9759976D01*
X12500833Y-9750452D01*
X12510357Y-9740929D01*
X12510357Y-9759976D01*
X12643690Y-9559976D02*
X12662738Y-9559976D01*
X12681786Y-9569500D01*
X12691309Y-9579024D01*
X12700833Y-9598071D01*
X12710357Y-9636167D01*
X12710357Y-9683786D01*
X12700833Y-9721881D01*
X12691309Y-9740929D01*
X12681786Y-9750452D01*
X12662738Y-9759976D01*
X12643690Y-9759976D01*
X12624643Y-9750452D01*
X12615119Y-9740929D01*
X12605595Y-9721881D01*
X12596071Y-9683786D01*
X12596071Y-9636167D01*
X12605595Y-9598071D01*
X12615119Y-9579024D01*
X12624643Y-9569500D01*
X12643690Y-9559976D01*
X12786548Y-9579024D02*
X12796071Y-9569500D01*
X12815119Y-9559976D01*
X12862738Y-9559976D01*
X12881786Y-9569500D01*
X12891309Y-9579024D01*
X12900833Y-9598071D01*
X12900833Y-9617119D01*
X12891309Y-9645690D01*
X12777024Y-9759976D01*
X12900833Y-9759976D01*
X12967500Y-9559976D02*
X13091309Y-9559976D01*
X13024643Y-9636167D01*
X13053214Y-9636167D01*
X13072262Y-9645690D01*
X13081786Y-9655214D01*
X13091309Y-9674262D01*
X13091309Y-9721881D01*
X13081786Y-9740929D01*
X13072262Y-9750452D01*
X13053214Y-9759976D01*
X12996071Y-9759976D01*
X12977024Y-9750452D01*
X12967500Y-9740929D01*
X13262738Y-9559976D02*
X13224643Y-9559976D01*
X13205595Y-9569500D01*
X13196071Y-9579024D01*
X13177024Y-9607595D01*
X13167500Y-9645690D01*
X13167500Y-9721881D01*
X13177024Y-9740929D01*
X13186548Y-9750452D01*
X13205595Y-9759976D01*
X13243690Y-9759976D01*
X13262738Y-9750452D01*
X13272262Y-9740929D01*
X13281786Y-9721881D01*
X13281786Y-9674262D01*
X13272262Y-9655214D01*
X13262738Y-9645690D01*
X13243690Y-9636167D01*
X13205595Y-9636167D01*
X13186548Y-9645690D01*
X13177024Y-9655214D01*
X13167500Y-9674262D01*
X13357976Y-9559976D02*
X13357976Y-9598071D01*
X13434167Y-9559976D02*
X13434167Y-9598071D01*
X13729405Y-9836167D02*
X13719881Y-9826643D01*
X13700833Y-9798071D01*
X13691309Y-9779024D01*
X13681786Y-9750452D01*
X13672262Y-9702833D01*
X13672262Y-9664738D01*
X13681786Y-9617119D01*
X13691309Y-9588548D01*
X13700833Y-9569500D01*
X13719881Y-9540929D01*
X13729405Y-9531405D01*
X13891309Y-9559976D02*
X13853214Y-9559976D01*
X13834167Y-9569500D01*
X13824643Y-9579024D01*
X13805595Y-9607595D01*
X13796071Y-9645690D01*
X13796071Y-9721881D01*
X13805595Y-9740929D01*
X13815119Y-9750452D01*
X13834167Y-9759976D01*
X13872262Y-9759976D01*
X13891309Y-9750452D01*
X13900833Y-9740929D01*
X13910357Y-9721881D01*
X13910357Y-9674262D01*
X13900833Y-9655214D01*
X13891309Y-9645690D01*
X13872262Y-9636167D01*
X13834167Y-9636167D01*
X13815119Y-9645690D01*
X13805595Y-9655214D01*
X13796071Y-9674262D01*
X14148452Y-9759976D02*
X14148452Y-9559976D01*
X14234167Y-9759976D02*
X14234167Y-9655214D01*
X14224643Y-9636167D01*
X14205595Y-9626643D01*
X14177024Y-9626643D01*
X14157976Y-9636167D01*
X14148452Y-9645690D01*
X14357976Y-9759976D02*
X14338928Y-9750452D01*
X14329405Y-9740929D01*
X14319881Y-9721881D01*
X14319881Y-9664738D01*
X14329405Y-9645690D01*
X14338928Y-9636167D01*
X14357976Y-9626643D01*
X14386548Y-9626643D01*
X14405595Y-9636167D01*
X14415119Y-9645690D01*
X14424643Y-9664738D01*
X14424643Y-9721881D01*
X14415119Y-9740929D01*
X14405595Y-9750452D01*
X14386548Y-9759976D01*
X14357976Y-9759976D01*
X14538928Y-9759976D02*
X14519881Y-9750452D01*
X14510357Y-9731405D01*
X14510357Y-9559976D01*
X14691309Y-9750452D02*
X14672262Y-9759976D01*
X14634167Y-9759976D01*
X14615119Y-9750452D01*
X14605595Y-9731405D01*
X14605595Y-9655214D01*
X14615119Y-9636167D01*
X14634167Y-9626643D01*
X14672262Y-9626643D01*
X14691309Y-9636167D01*
X14700833Y-9655214D01*
X14700833Y-9674262D01*
X14605595Y-9693310D01*
X14777024Y-9750452D02*
X14796071Y-9759976D01*
X14834167Y-9759976D01*
X14853214Y-9750452D01*
X14862738Y-9731405D01*
X14862738Y-9721881D01*
X14853214Y-9702833D01*
X14834167Y-9693310D01*
X14805595Y-9693310D01*
X14786548Y-9683786D01*
X14777024Y-9664738D01*
X14777024Y-9655214D01*
X14786548Y-9636167D01*
X14805595Y-9626643D01*
X14834167Y-9626643D01*
X14853214Y-9636167D01*
X14929405Y-9836167D02*
X14938928Y-9826643D01*
X14957976Y-9798071D01*
X14967500Y-9779024D01*
X14977024Y-9750452D01*
X14986548Y-9702833D01*
X14986548Y-9664738D01*
X14977024Y-9617119D01*
X14967500Y-9588548D01*
X14957976Y-9569500D01*
X14938928Y-9540929D01*
X14929405Y-9531405D01*
D13*
X10119400Y-9895400D02*
X10119400Y-9971600D01*
X10081300Y-9933500D02*
X10157500Y-9933500D01*
D11*
X10453214Y-9823976D02*
X10472262Y-9823976D01*
X10491310Y-9833500D01*
X10500833Y-9843024D01*
X10510357Y-9862071D01*
X10519881Y-9900167D01*
X10519881Y-9947786D01*
X10510357Y-9985881D01*
X10500833Y-10004929D01*
X10491310Y-10014452D01*
X10472262Y-10023976D01*
X10453214Y-10023976D01*
X10434167Y-10014452D01*
X10424643Y-10004929D01*
X10415119Y-9985881D01*
X10405595Y-9947786D01*
X10405595Y-9900167D01*
X10415119Y-9862071D01*
X10424643Y-9843024D01*
X10434167Y-9833500D01*
X10453214Y-9823976D01*
X10605595Y-10004929D02*
X10615119Y-10014452D01*
X10605595Y-10023976D01*
X10596071Y-10014452D01*
X10605595Y-10004929D01*
X10605595Y-10023976D01*
X10681786Y-9823976D02*
X10815119Y-9823976D01*
X10729405Y-10023976D01*
X10977024Y-9823976D02*
X10938929Y-9823976D01*
X10919881Y-9833500D01*
X10910357Y-9843024D01*
X10891310Y-9871595D01*
X10881786Y-9909690D01*
X10881786Y-9985881D01*
X10891310Y-10004929D01*
X10900833Y-10014452D01*
X10919881Y-10023976D01*
X10957976Y-10023976D01*
X10977024Y-10014452D01*
X10986548Y-10004929D01*
X10996071Y-9985881D01*
X10996071Y-9938262D01*
X10986548Y-9919214D01*
X10977024Y-9909690D01*
X10957976Y-9900167D01*
X10919881Y-9900167D01*
X10900833Y-9909690D01*
X10891310Y-9919214D01*
X10881786Y-9938262D01*
X11072262Y-9843024D02*
X11081786Y-9833500D01*
X11100833Y-9823976D01*
X11148452Y-9823976D01*
X11167500Y-9833500D01*
X11177024Y-9843024D01*
X11186548Y-9862071D01*
X11186548Y-9881119D01*
X11177024Y-9909690D01*
X11062738Y-10023976D01*
X11186548Y-10023976D01*
X11272262Y-10023976D02*
X11272262Y-9890643D01*
X11272262Y-9909690D02*
X11281786Y-9900167D01*
X11300833Y-9890643D01*
X11329405Y-9890643D01*
X11348452Y-9900167D01*
X11357976Y-9919214D01*
X11357976Y-10023976D01*
X11357976Y-9919214D02*
X11367500Y-9900167D01*
X11386548Y-9890643D01*
X11415119Y-9890643D01*
X11434167Y-9900167D01*
X11443690Y-9919214D01*
X11443690Y-10023976D01*
X11538928Y-10023976D02*
X11538928Y-9890643D01*
X11538928Y-9909690D02*
X11548452Y-9900167D01*
X11567500Y-9890643D01*
X11596071Y-9890643D01*
X11615119Y-9900167D01*
X11624643Y-9919214D01*
X11624643Y-10023976D01*
X11624643Y-9919214D02*
X11634167Y-9900167D01*
X11653214Y-9890643D01*
X11681786Y-9890643D01*
X11700833Y-9900167D01*
X11710357Y-9919214D01*
X11710357Y-10023976D01*
X12100833Y-9814452D02*
X11929405Y-10071595D01*
X12357976Y-9823976D02*
X12377024Y-9823976D01*
X12396071Y-9833500D01*
X12405595Y-9843024D01*
X12415119Y-9862071D01*
X12424643Y-9900167D01*
X12424643Y-9947786D01*
X12415119Y-9985881D01*
X12405595Y-10004929D01*
X12396071Y-10014452D01*
X12377024Y-10023976D01*
X12357976Y-10023976D01*
X12338928Y-10014452D01*
X12329405Y-10004929D01*
X12319881Y-9985881D01*
X12310357Y-9947786D01*
X12310357Y-9900167D01*
X12319881Y-9862071D01*
X12329405Y-9843024D01*
X12338928Y-9833500D01*
X12357976Y-9823976D01*
X12510357Y-10004929D02*
X12519881Y-10014452D01*
X12510357Y-10023976D01*
X12500833Y-10014452D01*
X12510357Y-10004929D01*
X12510357Y-10023976D01*
X12643690Y-9823976D02*
X12662738Y-9823976D01*
X12681786Y-9833500D01*
X12691309Y-9843024D01*
X12700833Y-9862071D01*
X12710357Y-9900167D01*
X12710357Y-9947786D01*
X12700833Y-9985881D01*
X12691309Y-10004929D01*
X12681786Y-10014452D01*
X12662738Y-10023976D01*
X12643690Y-10023976D01*
X12624643Y-10014452D01*
X12615119Y-10004929D01*
X12605595Y-9985881D01*
X12596071Y-9947786D01*
X12596071Y-9900167D01*
X12605595Y-9862071D01*
X12615119Y-9843024D01*
X12624643Y-9833500D01*
X12643690Y-9823976D01*
X12777024Y-9823976D02*
X12900833Y-9823976D01*
X12834167Y-9900167D01*
X12862738Y-9900167D01*
X12881786Y-9909690D01*
X12891309Y-9919214D01*
X12900833Y-9938262D01*
X12900833Y-9985881D01*
X12891309Y-10004929D01*
X12881786Y-10014452D01*
X12862738Y-10023976D01*
X12805595Y-10023976D01*
X12786548Y-10014452D01*
X12777024Y-10004929D01*
X13024643Y-9823976D02*
X13043690Y-9823976D01*
X13062738Y-9833500D01*
X13072262Y-9843024D01*
X13081786Y-9862071D01*
X13091309Y-9900167D01*
X13091309Y-9947786D01*
X13081786Y-9985881D01*
X13072262Y-10004929D01*
X13062738Y-10014452D01*
X13043690Y-10023976D01*
X13024643Y-10023976D01*
X13005595Y-10014452D01*
X12996071Y-10004929D01*
X12986548Y-9985881D01*
X12977024Y-9947786D01*
X12977024Y-9900167D01*
X12986548Y-9862071D01*
X12996071Y-9843024D01*
X13005595Y-9833500D01*
X13024643Y-9823976D01*
X13215119Y-9823976D02*
X13234167Y-9823976D01*
X13253214Y-9833500D01*
X13262738Y-9843024D01*
X13272262Y-9862071D01*
X13281786Y-9900167D01*
X13281786Y-9947786D01*
X13272262Y-9985881D01*
X13262738Y-10004929D01*
X13253214Y-10014452D01*
X13234167Y-10023976D01*
X13215119Y-10023976D01*
X13196071Y-10014452D01*
X13186548Y-10004929D01*
X13177024Y-9985881D01*
X13167500Y-9947786D01*
X13167500Y-9900167D01*
X13177024Y-9862071D01*
X13186548Y-9843024D01*
X13196071Y-9833500D01*
X13215119Y-9823976D01*
X13357976Y-9823976D02*
X13357976Y-9862071D01*
X13434167Y-9823976D02*
X13434167Y-9862071D01*
X13729405Y-10100167D02*
X13719881Y-10090643D01*
X13700833Y-10062071D01*
X13691309Y-10043024D01*
X13681786Y-10014452D01*
X13672262Y-9966833D01*
X13672262Y-9928738D01*
X13681786Y-9881119D01*
X13691309Y-9852548D01*
X13700833Y-9833500D01*
X13719881Y-9804929D01*
X13729405Y-9795405D01*
X13891309Y-9890643D02*
X13891309Y-10023976D01*
X13843690Y-9814452D02*
X13796071Y-9957310D01*
X13919881Y-9957310D01*
X14148452Y-10023976D02*
X14148452Y-9823976D01*
X14234167Y-10023976D02*
X14234167Y-9919214D01*
X14224643Y-9900167D01*
X14205595Y-9890643D01*
X14177024Y-9890643D01*
X14157976Y-9900167D01*
X14148452Y-9909690D01*
X14357976Y-10023976D02*
X14338928Y-10014452D01*
X14329405Y-10004929D01*
X14319881Y-9985881D01*
X14319881Y-9928738D01*
X14329405Y-9909690D01*
X14338928Y-9900167D01*
X14357976Y-9890643D01*
X14386548Y-9890643D01*
X14405595Y-9900167D01*
X14415119Y-9909690D01*
X14424643Y-9928738D01*
X14424643Y-9985881D01*
X14415119Y-10004929D01*
X14405595Y-10014452D01*
X14386548Y-10023976D01*
X14357976Y-10023976D01*
X14538928Y-10023976D02*
X14519881Y-10014452D01*
X14510357Y-9995405D01*
X14510357Y-9823976D01*
X14691309Y-10014452D02*
X14672262Y-10023976D01*
X14634167Y-10023976D01*
X14615119Y-10014452D01*
X14605595Y-9995405D01*
X14605595Y-9919214D01*
X14615119Y-9900167D01*
X14634167Y-9890643D01*
X14672262Y-9890643D01*
X14691309Y-9900167D01*
X14700833Y-9919214D01*
X14700833Y-9938262D01*
X14605595Y-9957310D01*
X14777024Y-10014452D02*
X14796071Y-10023976D01*
X14834167Y-10023976D01*
X14853214Y-10014452D01*
X14862738Y-9995405D01*
X14862738Y-9985881D01*
X14853214Y-9966833D01*
X14834167Y-9957310D01*
X14805595Y-9957310D01*
X14786548Y-9947786D01*
X14777024Y-9928738D01*
X14777024Y-9919214D01*
X14786548Y-9900167D01*
X14805595Y-9890643D01*
X14834167Y-9890643D01*
X14853214Y-9900167D01*
X14929405Y-10100167D02*
X14938928Y-10090643D01*
X14957976Y-10062071D01*
X14967500Y-10043024D01*
X14977024Y-10014452D01*
X14986548Y-9966833D01*
X14986548Y-9928738D01*
X14977024Y-9881119D01*
X14967500Y-9852548D01*
X14957976Y-9833500D01*
X14938928Y-9804929D01*
X14929405Y-9795405D01*
D14*
X10142856Y-10232856D02*
X10142856Y-10162144D01*
X10072144Y-10162144D01*
X10072144Y-10232856D01*
X10142856Y-10232856D01*
D11*
X10519881Y-10287976D02*
X10405595Y-10287976D01*
X10462738Y-10287976D02*
X10462738Y-10087976D01*
X10443690Y-10116548D01*
X10424643Y-10135595D01*
X10405595Y-10145119D01*
X10605595Y-10268929D02*
X10615119Y-10278452D01*
X10605595Y-10287976D01*
X10596071Y-10278452D01*
X10605595Y-10268929D01*
X10605595Y-10287976D01*
X10738929Y-10087976D02*
X10757976Y-10087976D01*
X10777024Y-10097500D01*
X10786548Y-10107024D01*
X10796071Y-10126071D01*
X10805595Y-10164167D01*
X10805595Y-10211786D01*
X10796071Y-10249881D01*
X10786548Y-10268929D01*
X10777024Y-10278452D01*
X10757976Y-10287976D01*
X10738929Y-10287976D01*
X10719881Y-10278452D01*
X10710357Y-10268929D01*
X10700833Y-10249881D01*
X10691310Y-10211786D01*
X10691310Y-10164167D01*
X10700833Y-10126071D01*
X10710357Y-10107024D01*
X10719881Y-10097500D01*
X10738929Y-10087976D01*
X10929405Y-10087976D02*
X10948452Y-10087976D01*
X10967500Y-10097500D01*
X10977024Y-10107024D01*
X10986548Y-10126071D01*
X10996071Y-10164167D01*
X10996071Y-10211786D01*
X10986548Y-10249881D01*
X10977024Y-10268929D01*
X10967500Y-10278452D01*
X10948452Y-10287976D01*
X10929405Y-10287976D01*
X10910357Y-10278452D01*
X10900833Y-10268929D01*
X10891310Y-10249881D01*
X10881786Y-10211786D01*
X10881786Y-10164167D01*
X10891310Y-10126071D01*
X10900833Y-10107024D01*
X10910357Y-10097500D01*
X10929405Y-10087976D01*
X11119881Y-10087976D02*
X11138929Y-10087976D01*
X11157976Y-10097500D01*
X11167500Y-10107024D01*
X11177024Y-10126071D01*
X11186548Y-10164167D01*
X11186548Y-10211786D01*
X11177024Y-10249881D01*
X11167500Y-10268929D01*
X11157976Y-10278452D01*
X11138929Y-10287976D01*
X11119881Y-10287976D01*
X11100833Y-10278452D01*
X11091310Y-10268929D01*
X11081786Y-10249881D01*
X11072262Y-10211786D01*
X11072262Y-10164167D01*
X11081786Y-10126071D01*
X11091310Y-10107024D01*
X11100833Y-10097500D01*
X11119881Y-10087976D01*
X11272262Y-10287976D02*
X11272262Y-10154643D01*
X11272262Y-10173690D02*
X11281786Y-10164167D01*
X11300833Y-10154643D01*
X11329405Y-10154643D01*
X11348452Y-10164167D01*
X11357976Y-10183214D01*
X11357976Y-10287976D01*
X11357976Y-10183214D02*
X11367500Y-10164167D01*
X11386548Y-10154643D01*
X11415119Y-10154643D01*
X11434167Y-10164167D01*
X11443690Y-10183214D01*
X11443690Y-10287976D01*
X11538928Y-10287976D02*
X11538928Y-10154643D01*
X11538928Y-10173690D02*
X11548452Y-10164167D01*
X11567500Y-10154643D01*
X11596071Y-10154643D01*
X11615119Y-10164167D01*
X11624643Y-10183214D01*
X11624643Y-10287976D01*
X11624643Y-10183214D02*
X11634167Y-10164167D01*
X11653214Y-10154643D01*
X11681786Y-10154643D01*
X11700833Y-10164167D01*
X11710357Y-10183214D01*
X11710357Y-10287976D01*
X12100833Y-10078452D02*
X11929405Y-10335595D01*
X12357976Y-10087976D02*
X12377024Y-10087976D01*
X12396071Y-10097500D01*
X12405595Y-10107024D01*
X12415119Y-10126071D01*
X12424643Y-10164167D01*
X12424643Y-10211786D01*
X12415119Y-10249881D01*
X12405595Y-10268929D01*
X12396071Y-10278452D01*
X12377024Y-10287976D01*
X12357976Y-10287976D01*
X12338928Y-10278452D01*
X12329405Y-10268929D01*
X12319881Y-10249881D01*
X12310357Y-10211786D01*
X12310357Y-10164167D01*
X12319881Y-10126071D01*
X12329405Y-10107024D01*
X12338928Y-10097500D01*
X12357976Y-10087976D01*
X12510357Y-10268929D02*
X12519881Y-10278452D01*
X12510357Y-10287976D01*
X12500833Y-10278452D01*
X12510357Y-10268929D01*
X12510357Y-10287976D01*
X12643690Y-10087976D02*
X12662738Y-10087976D01*
X12681786Y-10097500D01*
X12691309Y-10107024D01*
X12700833Y-10126071D01*
X12710357Y-10164167D01*
X12710357Y-10211786D01*
X12700833Y-10249881D01*
X12691309Y-10268929D01*
X12681786Y-10278452D01*
X12662738Y-10287976D01*
X12643690Y-10287976D01*
X12624643Y-10278452D01*
X12615119Y-10268929D01*
X12605595Y-10249881D01*
X12596071Y-10211786D01*
X12596071Y-10164167D01*
X12605595Y-10126071D01*
X12615119Y-10107024D01*
X12624643Y-10097500D01*
X12643690Y-10087976D01*
X12777024Y-10087976D02*
X12900833Y-10087976D01*
X12834167Y-10164167D01*
X12862738Y-10164167D01*
X12881786Y-10173690D01*
X12891309Y-10183214D01*
X12900833Y-10202262D01*
X12900833Y-10249881D01*
X12891309Y-10268929D01*
X12881786Y-10278452D01*
X12862738Y-10287976D01*
X12805595Y-10287976D01*
X12786548Y-10278452D01*
X12777024Y-10268929D01*
X12996071Y-10287976D02*
X13034167Y-10287976D01*
X13053214Y-10278452D01*
X13062738Y-10268929D01*
X13081786Y-10240357D01*
X13091309Y-10202262D01*
X13091309Y-10126071D01*
X13081786Y-10107024D01*
X13072262Y-10097500D01*
X13053214Y-10087976D01*
X13015119Y-10087976D01*
X12996071Y-10097500D01*
X12986548Y-10107024D01*
X12977024Y-10126071D01*
X12977024Y-10173690D01*
X12986548Y-10192738D01*
X12996071Y-10202262D01*
X13015119Y-10211786D01*
X13053214Y-10211786D01*
X13072262Y-10202262D01*
X13081786Y-10192738D01*
X13091309Y-10173690D01*
X13262738Y-10154643D02*
X13262738Y-10287976D01*
X13215119Y-10078452D02*
X13167500Y-10221310D01*
X13291309Y-10221310D01*
X13357976Y-10087976D02*
X13357976Y-10126071D01*
X13434167Y-10087976D02*
X13434167Y-10126071D01*
X13729405Y-10364167D02*
X13719881Y-10354643D01*
X13700833Y-10326071D01*
X13691309Y-10307024D01*
X13681786Y-10278452D01*
X13672262Y-10230833D01*
X13672262Y-10192738D01*
X13681786Y-10145119D01*
X13691309Y-10116548D01*
X13700833Y-10097500D01*
X13719881Y-10068929D01*
X13729405Y-10059405D01*
X13891309Y-10154643D02*
X13891309Y-10287976D01*
X13843690Y-10078452D02*
X13796071Y-10221310D01*
X13919881Y-10221310D01*
X14148452Y-10287976D02*
X14148452Y-10087976D01*
X14234167Y-10287976D02*
X14234167Y-10183214D01*
X14224643Y-10164167D01*
X14205595Y-10154643D01*
X14177024Y-10154643D01*
X14157976Y-10164167D01*
X14148452Y-10173690D01*
X14357976Y-10287976D02*
X14338928Y-10278452D01*
X14329405Y-10268929D01*
X14319881Y-10249881D01*
X14319881Y-10192738D01*
X14329405Y-10173690D01*
X14338928Y-10164167D01*
X14357976Y-10154643D01*
X14386548Y-10154643D01*
X14405595Y-10164167D01*
X14415119Y-10173690D01*
X14424643Y-10192738D01*
X14424643Y-10249881D01*
X14415119Y-10268929D01*
X14405595Y-10278452D01*
X14386548Y-10287976D01*
X14357976Y-10287976D01*
X14538928Y-10287976D02*
X14519881Y-10278452D01*
X14510357Y-10259405D01*
X14510357Y-10087976D01*
X14691309Y-10278452D02*
X14672262Y-10287976D01*
X14634167Y-10287976D01*
X14615119Y-10278452D01*
X14605595Y-10259405D01*
X14605595Y-10183214D01*
X14615119Y-10164167D01*
X14634167Y-10154643D01*
X14672262Y-10154643D01*
X14691309Y-10164167D01*
X14700833Y-10183214D01*
X14700833Y-10202262D01*
X14605595Y-10221310D01*
X14777024Y-10278452D02*
X14796071Y-10287976D01*
X14834167Y-10287976D01*
X14853214Y-10278452D01*
X14862738Y-10259405D01*
X14862738Y-10249881D01*
X14853214Y-10230833D01*
X14834167Y-10221310D01*
X14805595Y-10221310D01*
X14786548Y-10211786D01*
X14777024Y-10192738D01*
X14777024Y-10183214D01*
X14786548Y-10164167D01*
X14805595Y-10154643D01*
X14834167Y-10154643D01*
X14853214Y-10164167D01*
X14929405Y-10364167D02*
X14938928Y-10354643D01*
X14957976Y-10326071D01*
X14967500Y-10307024D01*
X14977024Y-10278452D01*
X14986548Y-10230833D01*
X14986548Y-10192738D01*
X14977024Y-10145119D01*
X14967500Y-10116548D01*
X14957976Y-10097500D01*
X14938928Y-10068929D01*
X14929405Y-10059405D01*
M02*
