G04 #@! TF.GenerationSoftware,KiCad,Pcbnew,(6.0.8)*
G04 #@! TF.CreationDate,2023-05-10T13:59:01+02:00*
G04 #@! TF.ProjectId,02_Batt_Alim,30325f42-6174-4745-9f41-6c696d2e6b69,rev?*
G04 #@! TF.SameCoordinates,Original*
G04 #@! TF.FileFunction,Copper,L1,Top*
G04 #@! TF.FilePolarity,Positive*
%FSLAX46Y46*%
G04 Gerber Fmt 4.6, Leading zero omitted, Abs format (unit mm)*
G04 Created by KiCad (PCBNEW (6.0.8)) date 2023-05-10 13:59:01*
%MOMM*%
%LPD*%
G01*
G04 APERTURE LIST*
G04 Aperture macros list*
%AMRoundRect*
0 Rectangle with rounded corners*
0 $1 Rounding radius*
0 $2 $3 $4 $5 $6 $7 $8 $9 X,Y pos of 4 corners*
0 Add a 4 corners polygon primitive as box body*
4,1,4,$2,$3,$4,$5,$6,$7,$8,$9,$2,$3,0*
0 Add four circle primitives for the rounded corners*
1,1,$1+$1,$2,$3*
1,1,$1+$1,$4,$5*
1,1,$1+$1,$6,$7*
1,1,$1+$1,$8,$9*
0 Add four rect primitives between the rounded corners*
20,1,$1+$1,$2,$3,$4,$5,0*
20,1,$1+$1,$4,$5,$6,$7,0*
20,1,$1+$1,$6,$7,$8,$9,0*
20,1,$1+$1,$8,$9,$2,$3,0*%
%AMFreePoly0*
4,1,19,2.294749,0.844703,2.473926,0.804652,2.640323,0.727060,2.786177,0.615546,2.904682,0.475314,2.990310,0.312906,3.039066,0.135899,3.048675,-0.047448,3.018688,-0.228582,2.950505,-0.399051,2.847308,-0.550902,2.713909,-0.677050,2.556534,-0.771611,2.382525,-0.830171,2.200000,-0.850000,-0.850000,-0.850000,-0.850000,0.850000,2.200000,0.850000,2.294749,0.844703,2.294749,0.844703,
$1*%
G04 Aperture macros list end*
G04 #@! TA.AperFunction,ComponentPad*
%ADD10C,1.000000*%
G04 #@! TD*
G04 #@! TA.AperFunction,SMDPad,CuDef*
%ADD11R,2.200000X3.300000*%
G04 #@! TD*
G04 #@! TA.AperFunction,SMDPad,CuDef*
%ADD12R,1.300000X0.700000*%
G04 #@! TD*
G04 #@! TA.AperFunction,ComponentPad*
%ADD13FreePoly0,180.000000*%
G04 #@! TD*
G04 #@! TA.AperFunction,ComponentPad*
%ADD14C,1.524000*%
G04 #@! TD*
G04 #@! TA.AperFunction,SMDPad,CuDef*
%ADD15R,2.500000X1.800000*%
G04 #@! TD*
G04 #@! TA.AperFunction,SMDPad,CuDef*
%ADD16R,1.800000X2.500000*%
G04 #@! TD*
G04 #@! TA.AperFunction,SMDPad,CuDef*
%ADD17RoundRect,0.225000X-0.250000X0.225000X-0.250000X-0.225000X0.250000X-0.225000X0.250000X0.225000X0*%
G04 #@! TD*
G04 #@! TA.AperFunction,SMDPad,CuDef*
%ADD18RoundRect,0.250000X-1.100000X0.325000X-1.100000X-0.325000X1.100000X-0.325000X1.100000X0.325000X0*%
G04 #@! TD*
G04 #@! TA.AperFunction,SMDPad,CuDef*
%ADD19RoundRect,0.218750X0.256250X-0.218750X0.256250X0.218750X-0.256250X0.218750X-0.256250X-0.218750X0*%
G04 #@! TD*
G04 #@! TA.AperFunction,SMDPad,CuDef*
%ADD20R,3.600000X2.700000*%
G04 #@! TD*
G04 #@! TA.AperFunction,SMDPad,CuDef*
%ADD21RoundRect,0.200000X-0.275000X0.200000X-0.275000X-0.200000X0.275000X-0.200000X0.275000X0.200000X0*%
G04 #@! TD*
G04 #@! TA.AperFunction,SMDPad,CuDef*
%ADD22RoundRect,0.200000X0.275000X-0.200000X0.275000X0.200000X-0.275000X0.200000X-0.275000X-0.200000X0*%
G04 #@! TD*
G04 #@! TA.AperFunction,SMDPad,CuDef*
%ADD23R,0.800000X1.900000*%
G04 #@! TD*
G04 #@! TA.AperFunction,ViaPad*
%ADD24C,1.000000*%
G04 #@! TD*
G04 #@! TA.AperFunction,Conductor*
%ADD25C,0.400000*%
G04 #@! TD*
G04 #@! TA.AperFunction,Conductor*
%ADD26C,1.000000*%
G04 #@! TD*
G04 APERTURE END LIST*
D10*
X115275000Y-70490000D03*
X114005000Y-70490000D03*
X115275000Y-69347000D03*
X114005000Y-69347000D03*
D11*
X114640000Y-70490000D03*
D12*
X117390000Y-72395000D03*
D10*
X115275000Y-71633000D03*
X114005000Y-71633000D03*
D11*
X114640000Y-70490000D03*
D12*
X117390000Y-71125000D03*
X117390000Y-69855000D03*
X117390000Y-68585000D03*
X111890000Y-68585000D03*
X111890000Y-69855000D03*
X111890000Y-71125000D03*
X111890000Y-72395000D03*
D13*
X104140000Y-73660000D03*
D14*
X101600000Y-73660000D03*
D13*
X104140000Y-71120000D03*
D14*
X101600000Y-71120000D03*
D13*
X104140000Y-68580000D03*
D14*
X101600000Y-68580000D03*
D13*
X104140000Y-66040000D03*
D14*
X101600000Y-66040000D03*
D15*
X111855000Y-64770000D03*
X107855000Y-64770000D03*
X111982000Y-75438000D03*
X107982000Y-75438000D03*
D16*
X113030000Y-81058000D03*
X113030000Y-85058000D03*
X126669800Y-69056000D03*
X126669800Y-65056000D03*
D17*
X119405400Y-68109800D03*
X119405400Y-69659800D03*
X107390000Y-68465000D03*
X107390000Y-70015000D03*
D18*
X105664000Y-82345000D03*
X105664000Y-85295000D03*
X115570000Y-75233000D03*
X115570000Y-78183000D03*
D19*
X123367800Y-66280900D03*
X123367800Y-64705900D03*
X121640600Y-66280900D03*
X121640600Y-64705900D03*
X103124000Y-82321500D03*
X103124000Y-80746500D03*
D20*
X123190000Y-84668000D03*
X123190000Y-76368000D03*
D21*
X123367800Y-67843400D03*
X123367800Y-69493400D03*
X119405400Y-71311000D03*
X119405400Y-72961000D03*
X121640600Y-67843400D03*
X121640600Y-69493400D03*
D22*
X117856000Y-66306200D03*
X117856000Y-64656200D03*
X116255800Y-66306200D03*
X116255800Y-64656200D03*
X114655600Y-66306200D03*
X114655600Y-64656200D03*
X119430800Y-66315000D03*
X119430800Y-64665000D03*
D21*
X103124000Y-83915000D03*
X103124000Y-85565000D03*
D23*
X108270000Y-84840000D03*
X110170000Y-84840000D03*
X109220000Y-81840000D03*
D24*
X115519200Y-79654400D03*
X116687600Y-79705200D03*
X107640000Y-86740000D03*
X106140000Y-86740000D03*
X104640000Y-86740000D03*
X103140000Y-86740000D03*
X106240000Y-68840000D03*
X116052600Y-80721200D03*
X108640000Y-67740000D03*
X110390000Y-72490000D03*
X111640000Y-67240000D03*
X123367800Y-70688200D03*
X110390000Y-71240000D03*
X121640600Y-70688200D03*
X110440000Y-70034239D03*
D25*
X126669800Y-71069200D02*
X123190000Y-74549000D01*
X123190000Y-74549000D02*
X123190000Y-76368000D01*
X126669800Y-69056000D02*
X126669800Y-71069200D01*
X119048000Y-75233000D02*
X120183000Y-76368000D01*
X120183000Y-76368000D02*
X123190000Y-76368000D01*
X115570000Y-75233000D02*
X119048000Y-75233000D01*
X115444800Y-75107800D02*
X115570000Y-75233000D01*
X113639600Y-75107800D02*
X115444800Y-75107800D01*
X113309400Y-75438000D02*
X113639600Y-75107800D01*
X111982000Y-75438000D02*
X113309400Y-75438000D01*
X109677200Y-80137000D02*
X109118400Y-80137000D01*
X110413800Y-79400400D02*
X109677200Y-80137000D01*
X112776000Y-79400400D02*
X110413800Y-79400400D01*
X113030000Y-79654400D02*
X112776000Y-79400400D01*
X113030000Y-81058000D02*
X113030000Y-79654400D01*
X103124000Y-79603600D02*
X104140000Y-78587600D01*
X103124000Y-80746500D02*
X103124000Y-79603600D01*
X105664000Y-80162400D02*
X105689400Y-80137000D01*
X105664000Y-82345000D02*
X105664000Y-80162400D01*
X104140000Y-78587600D02*
X104140000Y-78384400D01*
X105689400Y-80137000D02*
X104140000Y-78587600D01*
X104140000Y-78384400D02*
X104140000Y-73660000D01*
X109118400Y-80137000D02*
X105689400Y-80137000D01*
X109220000Y-80238600D02*
X109118400Y-80137000D01*
X109220000Y-81840000D02*
X109220000Y-80238600D01*
X103124000Y-80746500D02*
X103124000Y-79883000D01*
X116052600Y-79832200D02*
X116179600Y-79705200D01*
X116179600Y-79705200D02*
X115570000Y-79705200D01*
X116687600Y-79705200D02*
X116179600Y-79705200D01*
X116052600Y-80721200D02*
X116052600Y-79832200D01*
X115570000Y-79705200D02*
X115519200Y-79654400D01*
X115570000Y-79603600D02*
X115519200Y-79654400D01*
X115570000Y-78183000D02*
X115570000Y-79603600D01*
X123215400Y-86563200D02*
X123139200Y-86639400D01*
X123190000Y-86537800D02*
X123215400Y-86563200D01*
X123190000Y-84668000D02*
X123190000Y-86537800D01*
X123139200Y-86639400D02*
X113030000Y-86639400D01*
X113030000Y-86639400D02*
X113030000Y-85058000D01*
X110439200Y-86639400D02*
X113030000Y-86639400D01*
X110170000Y-86370200D02*
X110439200Y-86639400D01*
X110170000Y-84840000D02*
X110170000Y-86370200D01*
X108270000Y-86110000D02*
X107640000Y-86740000D01*
X108270000Y-84840000D02*
X108270000Y-86110000D01*
X107640000Y-86740000D02*
X105512600Y-86740000D01*
X105664000Y-86588600D02*
X105512600Y-86740000D01*
X105512600Y-86740000D02*
X103140000Y-86740000D01*
X105664000Y-85295000D02*
X105664000Y-86588600D01*
X103124000Y-85565000D02*
X103124000Y-86724000D01*
X103124000Y-86724000D02*
X103140000Y-86740000D01*
X103124000Y-82321500D02*
X103124000Y-83915000D01*
D26*
X107640000Y-71709400D02*
X107640000Y-70990000D01*
X106121200Y-73228200D02*
X107640000Y-71709400D01*
X106121200Y-75260200D02*
X106121200Y-73228200D01*
X106299000Y-75438000D02*
X106121200Y-75260200D01*
X107982000Y-75438000D02*
X106299000Y-75438000D01*
D25*
X123367800Y-69493400D02*
X123367800Y-70688200D01*
X121640600Y-69493400D02*
X121640600Y-70688200D01*
D26*
X105410000Y-63830200D02*
X105410000Y-64770000D01*
X106197400Y-63042800D02*
X105410000Y-63830200D01*
X126365000Y-63042800D02*
X106197400Y-63042800D01*
X126669800Y-65056000D02*
X126669800Y-63347600D01*
X126669800Y-63347600D02*
X126365000Y-63042800D01*
D25*
X113258600Y-64770000D02*
X113985800Y-64042800D01*
X113985800Y-64042800D02*
X114655600Y-64042800D01*
X111855000Y-64770000D02*
X113258600Y-64770000D01*
X116255800Y-64052200D02*
X116265200Y-64042800D01*
X116255800Y-64656200D02*
X116255800Y-64052200D01*
X116265200Y-64042800D02*
X114655600Y-64042800D01*
X117713000Y-64042800D02*
X116265200Y-64042800D01*
X117856000Y-64109600D02*
X117922800Y-64042800D01*
X117922800Y-64042800D02*
X117713000Y-64042800D01*
X117856000Y-64656200D02*
X117856000Y-64109600D01*
X119430800Y-64042800D02*
X117922800Y-64042800D01*
X119430800Y-64665000D02*
X119430800Y-64042800D01*
X114655600Y-64042800D02*
X114655600Y-64656200D01*
X123367800Y-66280900D02*
X123367800Y-67843400D01*
X121640600Y-66280900D02*
X121640600Y-67843400D01*
X118165800Y-69855000D02*
X117390000Y-69855000D01*
X119380000Y-70332600D02*
X118643400Y-70332600D01*
X119405400Y-70307200D02*
X119380000Y-70332600D01*
X119405400Y-69659800D02*
X119405400Y-70307200D01*
X118643400Y-70332600D02*
X118165800Y-69855000D01*
X118579400Y-72961000D02*
X119405400Y-72961000D01*
X118013400Y-72395000D02*
X118579400Y-72961000D01*
X117390000Y-72395000D02*
X118013400Y-72395000D01*
X119219400Y-71125000D02*
X119405400Y-71311000D01*
X117390000Y-71125000D02*
X119219400Y-71125000D01*
X118561000Y-68256000D02*
X118561000Y-67240000D01*
X118232000Y-68585000D02*
X118561000Y-68256000D01*
X118561000Y-67240000D02*
X119373800Y-67240000D01*
X117748200Y-67240000D02*
X118561000Y-67240000D01*
X117390000Y-68585000D02*
X118232000Y-68585000D01*
X117856000Y-66306200D02*
X117856000Y-67132200D01*
X117856000Y-67132200D02*
X117748200Y-67240000D01*
X116148000Y-67240000D02*
X117748200Y-67240000D01*
X116255800Y-67132200D02*
X116148000Y-67240000D01*
X116255800Y-66306200D02*
X116255800Y-67132200D01*
X114640000Y-67240000D02*
X116148000Y-67240000D01*
X120675400Y-64668400D02*
X123330300Y-64668400D01*
X120523000Y-66700400D02*
X120523000Y-64820800D01*
X123330300Y-64668400D02*
X123367800Y-64705900D01*
X120040400Y-67183000D02*
X120523000Y-66700400D01*
X120523000Y-64820800D02*
X120675400Y-64668400D01*
X119430800Y-67183000D02*
X120040400Y-67183000D01*
X119405400Y-67208400D02*
X119430800Y-67183000D01*
X119405400Y-68109800D02*
X119405400Y-67208400D01*
X119430800Y-67183000D02*
X119430800Y-66315000D01*
X119373800Y-67240000D02*
X119430800Y-67183000D01*
D26*
X104140000Y-66040000D02*
X105410000Y-64770000D01*
X105410000Y-64770000D02*
X107855000Y-64770000D01*
D25*
X105800000Y-68580000D02*
X106640000Y-67740000D01*
X115275000Y-69855000D02*
X114640000Y-70490000D01*
X107390000Y-68452500D02*
X107390000Y-67740000D01*
X117390000Y-69855000D02*
X115275000Y-69855000D01*
X106640000Y-67740000D02*
X107390000Y-67740000D01*
X117390000Y-72395000D02*
X116545000Y-72395000D01*
X104140000Y-68580000D02*
X102870000Y-68580000D01*
X102870000Y-68580000D02*
X101600000Y-68580000D01*
X116545000Y-72395000D02*
X114640000Y-70490000D01*
X102870000Y-68580000D02*
X105800000Y-68580000D01*
X107390000Y-67740000D02*
X108640000Y-67740000D01*
X114640000Y-66277500D02*
X114640000Y-67240000D01*
X111640000Y-67240000D02*
X112640000Y-67240000D01*
X111890000Y-72395000D02*
X110485000Y-72395000D01*
X110485000Y-72395000D02*
X110390000Y-72490000D01*
X114640000Y-67240000D02*
X112640000Y-67240000D01*
D26*
X111890000Y-68585000D02*
X110045000Y-68585000D01*
X108640000Y-70990000D02*
X107640000Y-70990000D01*
X104140000Y-71120000D02*
X107010000Y-71120000D01*
X109140000Y-69490000D02*
X109140000Y-70490000D01*
X110045000Y-68585000D02*
X109140000Y-69490000D01*
X109140000Y-70490000D02*
X108640000Y-70990000D01*
X107390000Y-70027500D02*
X107390000Y-70740000D01*
X107010000Y-71120000D02*
X107390000Y-70740000D01*
D25*
X104140000Y-71120000D02*
X101600000Y-71120000D01*
D26*
X107040000Y-71150000D02*
X107010000Y-71120000D01*
X107390000Y-70740000D02*
X107640000Y-70990000D01*
X101600000Y-66040000D02*
X104140000Y-66040000D01*
X101600000Y-66040000D02*
X102870000Y-66040000D01*
D25*
X110505000Y-71125000D02*
X110390000Y-71240000D01*
X111890000Y-71125000D02*
X110505000Y-71125000D01*
X110619239Y-69855000D02*
X110440000Y-70034239D01*
X111890000Y-69855000D02*
X110619239Y-69855000D01*
G04 #@! TA.AperFunction,Conductor*
G36*
X111045652Y-68060002D02*
G01*
X111051894Y-68064632D01*
X111051898Y-68064626D01*
X111056958Y-68068143D01*
X111061650Y-68072136D01*
X111234294Y-68168624D01*
X111422392Y-68229740D01*
X111618777Y-68253158D01*
X111624912Y-68252686D01*
X111624914Y-68252686D01*
X111809830Y-68238457D01*
X111809834Y-68238456D01*
X111815972Y-68237984D01*
X111880118Y-68220074D01*
X111951107Y-68221021D01*
X112010316Y-68260197D01*
X112038945Y-68325166D01*
X112040000Y-68341433D01*
X112040000Y-68870500D01*
X112019998Y-68938621D01*
X111966342Y-68985114D01*
X111914000Y-68996500D01*
X111191866Y-68996500D01*
X111129684Y-69003255D01*
X111082659Y-69020884D01*
X111053055Y-69031982D01*
X111008825Y-69040000D01*
X110635559Y-69040000D01*
X110622389Y-69039310D01*
X110453204Y-69021528D01*
X110453202Y-69021528D01*
X110447075Y-69020884D01*
X110250112Y-69038809D01*
X110250092Y-69038590D01*
X110235169Y-69040000D01*
X109540000Y-69040000D01*
X109540000Y-69545498D01*
X109524415Y-69606198D01*
X109508567Y-69635026D01*
X109506703Y-69640901D01*
X109506702Y-69640904D01*
X109466187Y-69768624D01*
X109448765Y-69823545D01*
X109426719Y-70020090D01*
X109443268Y-70217173D01*
X109497783Y-70407289D01*
X109500602Y-70412774D01*
X109526066Y-70462321D01*
X109540000Y-70519916D01*
X109540000Y-70660308D01*
X109524415Y-70721009D01*
X109458567Y-70840787D01*
X109398765Y-71029306D01*
X109376719Y-71225851D01*
X109393268Y-71422934D01*
X109447783Y-71613050D01*
X109503625Y-71721705D01*
X109526066Y-71765371D01*
X109540000Y-71822966D01*
X109540000Y-71910308D01*
X109524415Y-71971009D01*
X109467410Y-72074701D01*
X109417064Y-72124759D01*
X109356995Y-72140000D01*
X104366000Y-72140000D01*
X104297879Y-72119998D01*
X104251386Y-72066342D01*
X104240000Y-72014000D01*
X104240000Y-70266000D01*
X104260002Y-70197879D01*
X104313658Y-70151386D01*
X104366000Y-70140000D01*
X107840000Y-70140000D01*
X107932097Y-70026234D01*
X109009014Y-68695924D01*
X109050136Y-68662737D01*
X109182996Y-68595625D01*
X109338847Y-68473861D01*
X109432489Y-68365376D01*
X109464049Y-68328813D01*
X109464050Y-68328811D01*
X109468078Y-68324145D01*
X109565769Y-68152179D01*
X109574402Y-68126227D01*
X109614884Y-68067903D01*
X109680472Y-68040724D01*
X109693960Y-68040000D01*
X110977531Y-68040000D01*
X111045652Y-68060002D01*
G37*
G04 #@! TD.AperFunction*
G04 #@! TA.AperFunction,Conductor*
G36*
X108382121Y-67160002D02*
G01*
X108428614Y-67213658D01*
X108440000Y-67266000D01*
X108440000Y-68314000D01*
X108419998Y-68382121D01*
X108366342Y-68428614D01*
X108314000Y-68440000D01*
X106540000Y-68440000D01*
X106540000Y-69314000D01*
X106519998Y-69382121D01*
X106466342Y-69428614D01*
X106414000Y-69440000D01*
X104266000Y-69440000D01*
X104197879Y-69419998D01*
X104151386Y-69366342D01*
X104140000Y-69314000D01*
X104140000Y-67866000D01*
X104160002Y-67797879D01*
X104213658Y-67751386D01*
X104266000Y-67740000D01*
X105840000Y-67740000D01*
X106606400Y-67165200D01*
X106672898Y-67140329D01*
X106682000Y-67140000D01*
X108314000Y-67140000D01*
X108382121Y-67160002D01*
G37*
G04 #@! TD.AperFunction*
G04 #@! TA.AperFunction,Conductor*
G36*
X128973621Y-68600002D02*
G01*
X129020114Y-68653658D01*
X129031500Y-68706000D01*
X129031500Y-76074000D01*
X129011498Y-76142121D01*
X128957842Y-76188614D01*
X128905500Y-76200000D01*
X111886000Y-76200000D01*
X111817879Y-76179998D01*
X111771386Y-76126342D01*
X111760000Y-76074000D01*
X111760000Y-73786000D01*
X111780002Y-73717879D01*
X111833658Y-73671386D01*
X111886000Y-73660000D01*
X118451270Y-73660000D01*
X118474232Y-73662110D01*
X118486462Y-73664377D01*
X118534586Y-73673296D01*
X118542166Y-73672859D01*
X118542167Y-73672859D01*
X118554861Y-73672127D01*
X118578492Y-73670764D01*
X118647650Y-73686811D01*
X118674840Y-73707460D01*
X118690019Y-73722639D01*
X118836701Y-73811472D01*
X118843948Y-73813743D01*
X118843950Y-73813744D01*
X118910236Y-73834517D01*
X119000338Y-73862753D01*
X119073765Y-73869500D01*
X119076663Y-73869500D01*
X119406260Y-73869499D01*
X119737034Y-73869499D01*
X119739892Y-73869236D01*
X119739901Y-73869236D01*
X119775404Y-73865974D01*
X119810462Y-73862753D01*
X119816847Y-73860752D01*
X119966850Y-73813744D01*
X119966852Y-73813743D01*
X119974099Y-73811472D01*
X120120781Y-73722639D01*
X120146515Y-73696905D01*
X120208827Y-73662879D01*
X120235610Y-73660000D01*
X124460000Y-73660000D01*
X124460000Y-68706000D01*
X124480002Y-68637879D01*
X124533658Y-68591386D01*
X124586000Y-68580000D01*
X128905500Y-68580000D01*
X128973621Y-68600002D01*
G37*
G04 #@! TD.AperFunction*
G04 #@! TA.AperFunction,Conductor*
G36*
X128973621Y-84475002D02*
G01*
X129020114Y-84528658D01*
X129031500Y-84581000D01*
X129031500Y-86995500D01*
X129011498Y-87063621D01*
X128957842Y-87110114D01*
X128905500Y-87121500D01*
X109981000Y-87121500D01*
X109912879Y-87101498D01*
X109866386Y-87047842D01*
X109855000Y-86995500D01*
X109855000Y-84581000D01*
X109875002Y-84512879D01*
X109928658Y-84466386D01*
X109981000Y-84455000D01*
X128905500Y-84455000D01*
X128973621Y-84475002D01*
G37*
G04 #@! TD.AperFunction*
G04 #@! TA.AperFunction,Conductor*
G36*
X108527121Y-84475002D02*
G01*
X108573614Y-84528658D01*
X108585000Y-84581000D01*
X108585000Y-86995500D01*
X108564998Y-87063621D01*
X108511342Y-87110114D01*
X108459000Y-87121500D01*
X102234500Y-87121500D01*
X102166379Y-87101498D01*
X102119886Y-87047842D01*
X102108500Y-86995500D01*
X102108500Y-85851000D01*
X102128502Y-85782879D01*
X102182158Y-85736386D01*
X102234500Y-85725000D01*
X104140000Y-85725000D01*
X104140000Y-85216000D01*
X104160002Y-85147879D01*
X104213658Y-85101386D01*
X104266000Y-85090000D01*
X107315000Y-85090000D01*
X107315000Y-84581000D01*
X107335002Y-84512879D01*
X107388658Y-84466386D01*
X107441000Y-84455000D01*
X108459000Y-84455000D01*
X108527121Y-84475002D01*
G37*
G04 #@! TD.AperFunction*
G04 #@! TA.AperFunction,Conductor*
G36*
X104717121Y-73045002D02*
G01*
X104763614Y-73098658D01*
X104775000Y-73151000D01*
X104775000Y-75565000D01*
X107315000Y-77470000D01*
X113539000Y-77470000D01*
X113607121Y-77490002D01*
X113653614Y-77543658D01*
X113665000Y-77596000D01*
X113665000Y-81154000D01*
X113644998Y-81222121D01*
X113591342Y-81268614D01*
X113539000Y-81280000D01*
X111125000Y-81280000D01*
X111125000Y-81789000D01*
X111104998Y-81857121D01*
X111051342Y-81903614D01*
X110999000Y-81915000D01*
X107315000Y-81915000D01*
X107315000Y-82424000D01*
X107294998Y-82492121D01*
X107241342Y-82538614D01*
X107189000Y-82550000D01*
X104266000Y-82550000D01*
X104197879Y-82529998D01*
X104151386Y-82476342D01*
X104140000Y-82424000D01*
X104140000Y-80645000D01*
X102234500Y-80645000D01*
X102166379Y-80624998D01*
X102119886Y-80571342D01*
X102108500Y-80519000D01*
X102108500Y-73151000D01*
X102128502Y-73082879D01*
X102182158Y-73036386D01*
X102234500Y-73025000D01*
X104649000Y-73025000D01*
X104717121Y-73045002D01*
G37*
G04 #@! TD.AperFunction*
G04 #@! TA.AperFunction,Conductor*
G36*
X117417121Y-78125002D02*
G01*
X117463614Y-78178658D01*
X117475000Y-78231000D01*
X117475000Y-81154000D01*
X117454998Y-81222121D01*
X117401342Y-81268614D01*
X117349000Y-81280000D01*
X115061000Y-81280000D01*
X114992879Y-81259998D01*
X114946386Y-81206342D01*
X114935000Y-81154000D01*
X114935000Y-79375000D01*
X114426000Y-79375000D01*
X114357879Y-79354998D01*
X114311386Y-79301342D01*
X114300000Y-79249000D01*
X114300000Y-78231000D01*
X114320002Y-78162879D01*
X114373658Y-78116386D01*
X114426000Y-78105000D01*
X117349000Y-78105000D01*
X117417121Y-78125002D01*
G37*
G04 #@! TD.AperFunction*
G04 #@! TA.AperFunction,Conductor*
G36*
X107950000Y-74804000D02*
G01*
X107929998Y-74872121D01*
X107876342Y-74918614D01*
X107824000Y-74930000D01*
X105553269Y-74930000D01*
X105485148Y-74909998D01*
X105438655Y-74856342D01*
X105428551Y-74786068D01*
X105438653Y-74751662D01*
X105482919Y-74654734D01*
X105503729Y-74510000D01*
X105503729Y-73737581D01*
X105503925Y-73730548D01*
X105506514Y-73684243D01*
X105506514Y-73684238D01*
X105506704Y-73680840D01*
X105503902Y-73627377D01*
X105503729Y-73620782D01*
X105503729Y-72810000D01*
X105498500Y-72736889D01*
X105457304Y-72596589D01*
X105430003Y-72554108D01*
X105410000Y-72485986D01*
X105410000Y-71755000D01*
X107950000Y-71755000D01*
X107950000Y-74804000D01*
G37*
G04 #@! TD.AperFunction*
G04 #@! TA.AperFunction,Conductor*
G36*
X120592121Y-66695002D02*
G01*
X120638614Y-66748658D01*
X120650000Y-66801000D01*
X120650000Y-67819000D01*
X120629998Y-67887121D01*
X120576342Y-67933614D01*
X120524000Y-67945000D01*
X113156000Y-67945000D01*
X113087879Y-67924998D01*
X113041386Y-67871342D01*
X113030000Y-67819000D01*
X113030000Y-66801000D01*
X113050002Y-66732879D01*
X113103658Y-66686386D01*
X113156000Y-66675000D01*
X120524000Y-66675000D01*
X120592121Y-66695002D01*
G37*
G04 #@! TD.AperFunction*
G04 #@! TA.AperFunction,Conductor*
G36*
X116319432Y-69235002D02*
G01*
X116352135Y-69265432D01*
X116376739Y-69298261D01*
X116493295Y-69385615D01*
X116629684Y-69436745D01*
X116691866Y-69443500D01*
X118088134Y-69443500D01*
X118150316Y-69436745D01*
X118286705Y-69385615D01*
X118403261Y-69298261D01*
X118408642Y-69291081D01*
X118409401Y-69290322D01*
X118447849Y-69264044D01*
X118496813Y-69242550D01*
X118502904Y-69240065D01*
X118547711Y-69223134D01*
X118592248Y-69215000D01*
X119254000Y-69215000D01*
X119322121Y-69235002D01*
X119368614Y-69288658D01*
X119380000Y-69341000D01*
X119380000Y-70276501D01*
X119359998Y-70344622D01*
X119306342Y-70391115D01*
X119254001Y-70402501D01*
X119073766Y-70402501D01*
X119070908Y-70402764D01*
X119070899Y-70402764D01*
X119023145Y-70407152D01*
X119000338Y-70409247D01*
X118993962Y-70411245D01*
X118987402Y-70412559D01*
X118987291Y-70412004D01*
X118957913Y-70416500D01*
X118451589Y-70416500D01*
X118383468Y-70396498D01*
X118376024Y-70391326D01*
X118286705Y-70324385D01*
X118150316Y-70273255D01*
X118088134Y-70266500D01*
X116691866Y-70266500D01*
X116629684Y-70273255D01*
X116493295Y-70324385D01*
X116376739Y-70411739D01*
X116289385Y-70528295D01*
X116238255Y-70664684D01*
X116231500Y-70726866D01*
X116231500Y-71523134D01*
X116238255Y-71585316D01*
X116289385Y-71721705D01*
X116376739Y-71838261D01*
X116493295Y-71925615D01*
X116629684Y-71976745D01*
X116691866Y-71983500D01*
X118088134Y-71983500D01*
X118150316Y-71976745D01*
X118286705Y-71925615D01*
X118358679Y-71871673D01*
X118425187Y-71846825D01*
X118494569Y-71861878D01*
X118542021Y-71907228D01*
X118568761Y-71951381D01*
X118690019Y-72072639D01*
X118836701Y-72161472D01*
X118843948Y-72163743D01*
X118843950Y-72163744D01*
X118910236Y-72184517D01*
X119000338Y-72212753D01*
X119073765Y-72219500D01*
X119254000Y-72219500D01*
X119322121Y-72239502D01*
X119368614Y-72293158D01*
X119380000Y-72345500D01*
X119380000Y-72899000D01*
X119359998Y-72967121D01*
X119306342Y-73013614D01*
X119254000Y-73025000D01*
X113791000Y-73025000D01*
X113722879Y-73004998D01*
X113676386Y-72951342D01*
X113665000Y-72899000D01*
X113665000Y-69341000D01*
X113685002Y-69272879D01*
X113738658Y-69226386D01*
X113791000Y-69215000D01*
X116251311Y-69215000D01*
X116319432Y-69235002D01*
G37*
G04 #@! TD.AperFunction*
M02*
