G04 #@! TF.GenerationSoftware,KiCad,Pcbnew,(6.0.8)*
G04 #@! TF.CreationDate,2023-05-10T13:59:01+02:00*
G04 #@! TF.ProjectId,02_Batt_Alim,30325f42-6174-4745-9f41-6c696d2e6b69,rev?*
G04 #@! TF.SameCoordinates,Original*
G04 #@! TF.FileFunction,Legend,Top*
G04 #@! TF.FilePolarity,Positive*
%FSLAX46Y46*%
G04 Gerber Fmt 4.6, Leading zero omitted, Abs format (unit mm)*
G04 Created by KiCad (PCBNEW (6.0.8)) date 2023-05-10 13:59:01*
%MOMM*%
%LPD*%
G01*
G04 APERTURE LIST*
G04 Aperture macros list*
%AMRoundRect*
0 Rectangle with rounded corners*
0 $1 Rounding radius*
0 $2 $3 $4 $5 $6 $7 $8 $9 X,Y pos of 4 corners*
0 Add a 4 corners polygon primitive as box body*
4,1,4,$2,$3,$4,$5,$6,$7,$8,$9,$2,$3,0*
0 Add four circle primitives for the rounded corners*
1,1,$1+$1,$2,$3*
1,1,$1+$1,$4,$5*
1,1,$1+$1,$6,$7*
1,1,$1+$1,$8,$9*
0 Add four rect primitives between the rounded corners*
20,1,$1+$1,$2,$3,$4,$5,0*
20,1,$1+$1,$4,$5,$6,$7,0*
20,1,$1+$1,$6,$7,$8,$9,0*
20,1,$1+$1,$8,$9,$2,$3,0*%
%AMFreePoly0*
4,1,39,2.202791,0.899922,2.297540,0.894625,2.305656,0.893499,2.484833,0.853448,2.495057,0.849967,2.661454,0.772375,2.670692,0.766781,2.816546,0.655267,2.824367,0.647819,2.942872,0.507587,2.948911,0.498633,3.034539,0.336225,3.038515,0.326184,3.087271,0.149177,3.088997,0.138516,3.098606,-0.044831,3.098004,-0.055614,3.068017,-0.236748,3.065112,-0.247150,2.996929,-0.417619,
2.991859,-0.427155,2.888662,-0.579006,2.881662,-0.587231,2.748263,-0.713379,2.739661,-0.719908,2.582286,-0.814469,2.572482,-0.818999,2.398473,-0.877559,2.387925,-0.879879,2.205400,-0.899708,2.200000,-0.900000,-0.850000,-0.900000,-0.885355,-0.885355,-0.900000,-0.850000,-0.900000,0.850000,-0.885355,0.885355,-0.850000,0.900000,2.200000,0.900000,2.202791,0.899922,2.202791,0.899922,
$1*%
G04 Aperture macros list end*
%ADD10C,0.150000*%
%ADD11C,0.125000*%
%ADD12C,0.127000*%
%ADD13C,0.100000*%
%ADD14C,0.120000*%
%ADD15C,1.100000*%
%ADD16RoundRect,0.050000X1.100000X1.650000X-1.100000X1.650000X-1.100000X-1.650000X1.100000X-1.650000X0*%
%ADD17RoundRect,0.050000X0.650000X0.350000X-0.650000X0.350000X-0.650000X-0.350000X0.650000X-0.350000X0*%
%ADD18FreePoly0,180.000000*%
%ADD19C,1.624000*%
%ADD20RoundRect,0.050000X1.250000X0.900000X-1.250000X0.900000X-1.250000X-0.900000X1.250000X-0.900000X0*%
%ADD21RoundRect,0.050000X-0.900000X1.250000X-0.900000X-1.250000X0.900000X-1.250000X0.900000X1.250000X0*%
%ADD22RoundRect,0.050000X0.900000X-1.250000X0.900000X1.250000X-0.900000X1.250000X-0.900000X-1.250000X0*%
%ADD23RoundRect,0.275000X-0.250000X0.225000X-0.250000X-0.225000X0.250000X-0.225000X0.250000X0.225000X0*%
%ADD24RoundRect,0.300000X-1.100000X0.325000X-1.100000X-0.325000X1.100000X-0.325000X1.100000X0.325000X0*%
%ADD25RoundRect,0.268750X0.256250X-0.218750X0.256250X0.218750X-0.256250X0.218750X-0.256250X-0.218750X0*%
%ADD26RoundRect,0.050000X1.800000X-1.350000X1.800000X1.350000X-1.800000X1.350000X-1.800000X-1.350000X0*%
%ADD27RoundRect,0.250000X-0.275000X0.200000X-0.275000X-0.200000X0.275000X-0.200000X0.275000X0.200000X0*%
%ADD28RoundRect,0.250000X0.275000X-0.200000X0.275000X0.200000X-0.275000X0.200000X-0.275000X-0.200000X0*%
%ADD29RoundRect,0.050000X0.400000X-0.950000X0.400000X0.950000X-0.400000X0.950000X-0.400000X-0.950000X0*%
G04 APERTURE END LIST*
D10*
X122959857Y-71955114D02*
X122912238Y-71907495D01*
X122864619Y-71764638D01*
X122864619Y-71669400D01*
X122912238Y-71526542D01*
X123007476Y-71431304D01*
X123102714Y-71383685D01*
X123293190Y-71336066D01*
X123436047Y-71336066D01*
X123626523Y-71383685D01*
X123721761Y-71431304D01*
X123817000Y-71526542D01*
X123864619Y-71669400D01*
X123864619Y-71764638D01*
X123817000Y-71907495D01*
X123769380Y-71955114D01*
X122864619Y-72383685D02*
X123864619Y-72383685D01*
X123388428Y-72383685D02*
X123388428Y-72955114D01*
X122864619Y-72955114D02*
X123864619Y-72955114D01*
X123817000Y-73955114D02*
X123864619Y-73859876D01*
X123864619Y-73717019D01*
X123817000Y-73574161D01*
X123721761Y-73478923D01*
X123626523Y-73431304D01*
X123436047Y-73383685D01*
X123293190Y-73383685D01*
X123102714Y-73431304D01*
X123007476Y-73478923D01*
X122912238Y-73574161D01*
X122864619Y-73717019D01*
X122864619Y-73812257D01*
X122912238Y-73955114D01*
X122959857Y-74002733D01*
X123293190Y-74002733D01*
X123293190Y-73812257D01*
X102627180Y-79089047D02*
X102627180Y-79565238D01*
X103103371Y-79612857D01*
X103055752Y-79565238D01*
X103008133Y-79470000D01*
X103008133Y-79231904D01*
X103055752Y-79136666D01*
X103103371Y-79089047D01*
X103198609Y-79041428D01*
X103436704Y-79041428D01*
X103531942Y-79089047D01*
X103579561Y-79136666D01*
X103627180Y-79231904D01*
X103627180Y-79470000D01*
X103579561Y-79565238D01*
X103531942Y-79612857D01*
X102627180Y-78755714D02*
X103627180Y-78422380D01*
X102627180Y-78089047D01*
X102627180Y-76803333D02*
X102627180Y-76612857D01*
X102674800Y-76517619D01*
X102770038Y-76422380D01*
X102960514Y-76374761D01*
X103293847Y-76374761D01*
X103484323Y-76422380D01*
X103579561Y-76517619D01*
X103627180Y-76612857D01*
X103627180Y-76803333D01*
X103579561Y-76898571D01*
X103484323Y-76993809D01*
X103293847Y-77041428D01*
X102960514Y-77041428D01*
X102770038Y-76993809D01*
X102674800Y-76898571D01*
X102627180Y-76803333D01*
X103627180Y-75946190D02*
X102627180Y-75946190D01*
X103627180Y-75374761D01*
X102627180Y-75374761D01*
X121185038Y-71302761D02*
X121137419Y-71445619D01*
X121137419Y-71683714D01*
X121185038Y-71778952D01*
X121232657Y-71826571D01*
X121327895Y-71874190D01*
X121423133Y-71874190D01*
X121518371Y-71826571D01*
X121565990Y-71778952D01*
X121613609Y-71683714D01*
X121661228Y-71493238D01*
X121708847Y-71398000D01*
X121756466Y-71350380D01*
X121851704Y-71302761D01*
X121946942Y-71302761D01*
X122042180Y-71350380D01*
X122089800Y-71398000D01*
X122137419Y-71493238D01*
X122137419Y-71731333D01*
X122089800Y-71874190D01*
X122137419Y-72159904D02*
X122137419Y-72731333D01*
X121137419Y-72445619D02*
X122137419Y-72445619D01*
X121661228Y-73398000D02*
X121613609Y-73540857D01*
X121565990Y-73588476D01*
X121470752Y-73636095D01*
X121327895Y-73636095D01*
X121232657Y-73588476D01*
X121185038Y-73540857D01*
X121137419Y-73445619D01*
X121137419Y-73064666D01*
X122137419Y-73064666D01*
X122137419Y-73398000D01*
X122089800Y-73493238D01*
X122042180Y-73540857D01*
X121946942Y-73588476D01*
X121851704Y-73588476D01*
X121756466Y-73540857D01*
X121708847Y-73493238D01*
X121661228Y-73398000D01*
X121661228Y-73064666D01*
X121613609Y-74255142D02*
X121137419Y-74255142D01*
X122137419Y-73921809D02*
X121613609Y-74255142D01*
X122137419Y-74588476D01*
D11*
X118180142Y-72168809D02*
X118465857Y-72168809D01*
X118323000Y-72168809D02*
X118323000Y-72668809D01*
X118370619Y-72597380D01*
X118418238Y-72549761D01*
X118465857Y-72525952D01*
D10*
X109497904Y-67762380D02*
X109497904Y-66762380D01*
X109736000Y-66762380D01*
X109878857Y-66810000D01*
X109974095Y-66905238D01*
X110021714Y-67000476D01*
X110069333Y-67190952D01*
X110069333Y-67333809D01*
X110021714Y-67524285D01*
X109974095Y-67619523D01*
X109878857Y-67714761D01*
X109736000Y-67762380D01*
X109497904Y-67762380D01*
X110402666Y-66762380D02*
X111069333Y-66762380D01*
X110640761Y-67762380D01*
X108481904Y-78390380D02*
X108481904Y-77390380D01*
X108720000Y-77390380D01*
X108862857Y-77438000D01*
X108958095Y-77533238D01*
X109005714Y-77628476D01*
X109053333Y-77818952D01*
X109053333Y-77961809D01*
X109005714Y-78152285D01*
X108958095Y-78247523D01*
X108862857Y-78342761D01*
X108720000Y-78390380D01*
X108481904Y-78390380D01*
X109624761Y-77818952D02*
X109529523Y-77771333D01*
X109481904Y-77723714D01*
X109434285Y-77628476D01*
X109434285Y-77580857D01*
X109481904Y-77485619D01*
X109529523Y-77438000D01*
X109624761Y-77390380D01*
X109815238Y-77390380D01*
X109910476Y-77438000D01*
X109958095Y-77485619D01*
X110005714Y-77580857D01*
X110005714Y-77628476D01*
X109958095Y-77723714D01*
X109910476Y-77771333D01*
X109815238Y-77818952D01*
X109624761Y-77818952D01*
X109529523Y-77866571D01*
X109481904Y-77914190D01*
X109434285Y-78009428D01*
X109434285Y-78199904D01*
X109481904Y-78295142D01*
X109529523Y-78342761D01*
X109624761Y-78390380D01*
X109815238Y-78390380D01*
X109910476Y-78342761D01*
X109958095Y-78295142D01*
X110005714Y-78199904D01*
X110005714Y-78009428D01*
X109958095Y-77914190D01*
X109910476Y-77866571D01*
X109815238Y-77818952D01*
X113482380Y-79224095D02*
X112482380Y-79224095D01*
X112482380Y-78986000D01*
X112530000Y-78843142D01*
X112625238Y-78747904D01*
X112720476Y-78700285D01*
X112910952Y-78652666D01*
X113053809Y-78652666D01*
X113244285Y-78700285D01*
X113339523Y-78747904D01*
X113434761Y-78843142D01*
X113482380Y-78986000D01*
X113482380Y-79224095D01*
X112482380Y-77747904D02*
X112482380Y-78224095D01*
X112958571Y-78271714D01*
X112910952Y-78224095D01*
X112863333Y-78128857D01*
X112863333Y-77890761D01*
X112910952Y-77795523D01*
X112958571Y-77747904D01*
X113053809Y-77700285D01*
X113291904Y-77700285D01*
X113387142Y-77747904D01*
X113434761Y-77795523D01*
X113482380Y-77890761D01*
X113482380Y-78128857D01*
X113434761Y-78224095D01*
X113387142Y-78271714D01*
X127122180Y-72620095D02*
X126122180Y-72620095D01*
X126122180Y-72382000D01*
X126169800Y-72239142D01*
X126265038Y-72143904D01*
X126360276Y-72096285D01*
X126550752Y-72048666D01*
X126693609Y-72048666D01*
X126884085Y-72096285D01*
X126979323Y-72143904D01*
X127074561Y-72239142D01*
X127122180Y-72382000D01*
X127122180Y-72620095D01*
X126455514Y-71191523D02*
X127122180Y-71191523D01*
X126074561Y-71429619D02*
X126788847Y-71667714D01*
X126788847Y-71048666D01*
D12*
X112540000Y-72903000D02*
X118069000Y-72903000D01*
X116740000Y-68077000D02*
X112540000Y-68077000D01*
D13*
X116463606Y-72190000D02*
G75*
G03*
X116463606Y-72190000I-223606J0D01*
G01*
D14*
X113255000Y-66420000D02*
X107855000Y-66420000D01*
X113255000Y-63120000D02*
X107855000Y-63120000D01*
X113255000Y-66420000D02*
X113255000Y-63120000D01*
X113382000Y-77088000D02*
X107982000Y-77088000D01*
X113382000Y-73788000D02*
X107982000Y-73788000D01*
X113382000Y-77088000D02*
X113382000Y-73788000D01*
X114680000Y-79658000D02*
X114680000Y-85058000D01*
X111380000Y-79658000D02*
X111380000Y-85058000D01*
X114680000Y-79658000D02*
X111380000Y-79658000D01*
X125019800Y-70456000D02*
X125019800Y-65056000D01*
X128319800Y-70456000D02*
X128319800Y-65056000D01*
X125019800Y-70456000D02*
X128319800Y-70456000D01*
X118895400Y-68744220D02*
X118895400Y-69025380D01*
X119915400Y-68744220D02*
X119915400Y-69025380D01*
X107900000Y-69099420D02*
X107900000Y-69380580D01*
X106880000Y-69099420D02*
X106880000Y-69380580D01*
X104304000Y-83108748D02*
X104304000Y-84531252D01*
X107024000Y-83108748D02*
X107024000Y-84531252D01*
X114210000Y-75996748D02*
X114210000Y-77419252D01*
X116930000Y-75996748D02*
X116930000Y-77419252D01*
X122632800Y-66978400D02*
X124102800Y-66978400D01*
X124102800Y-66978400D02*
X124102800Y-64693400D01*
X122632800Y-64693400D02*
X122632800Y-66978400D01*
X122375600Y-66978400D02*
X122375600Y-64693400D01*
X120905600Y-64693400D02*
X120905600Y-66978400D01*
X120905600Y-66978400D02*
X122375600Y-66978400D01*
X103859000Y-83019000D02*
X103859000Y-80734000D01*
X102389000Y-83019000D02*
X103859000Y-83019000D01*
X102389000Y-80734000D02*
X102389000Y-83019000D01*
X117890000Y-75218000D02*
X121090000Y-75218000D01*
X128490000Y-85818000D02*
X125290000Y-85818000D01*
X117890000Y-85818000D02*
X117890000Y-75218000D01*
X128490000Y-75218000D02*
X128490000Y-85818000D01*
X121090000Y-85818000D02*
X117890000Y-85818000D01*
X125290000Y-75218000D02*
X128490000Y-75218000D01*
X123890300Y-68431142D02*
X123890300Y-68905658D01*
X122845300Y-68431142D02*
X122845300Y-68905658D01*
X118882900Y-71898742D02*
X118882900Y-72373258D01*
X119927900Y-71898742D02*
X119927900Y-72373258D01*
X122163100Y-68431142D02*
X122163100Y-68905658D01*
X121118100Y-68431142D02*
X121118100Y-68905658D01*
X118378500Y-65718458D02*
X118378500Y-65243942D01*
X117333500Y-65718458D02*
X117333500Y-65243942D01*
X116778300Y-65718458D02*
X116778300Y-65243942D01*
X115733300Y-65718458D02*
X115733300Y-65243942D01*
X114133100Y-65718458D02*
X114133100Y-65243942D01*
X115178100Y-65718458D02*
X115178100Y-65243942D01*
X119953300Y-65727258D02*
X119953300Y-65252742D01*
X118908300Y-65727258D02*
X118908300Y-65252742D01*
X103646500Y-84502742D02*
X103646500Y-84977258D01*
X102601500Y-84502742D02*
X102601500Y-84977258D01*
X110800000Y-82580000D02*
X110800000Y-84040000D01*
X107640000Y-82580000D02*
X108570000Y-82580000D01*
X107640000Y-82580000D02*
X107640000Y-85740000D01*
X110800000Y-82580000D02*
X109870000Y-82580000D01*
%LPC*%
D15*
X115275000Y-70490000D03*
X114005000Y-70490000D03*
X115275000Y-69347000D03*
X114005000Y-69347000D03*
D16*
X114640000Y-70490000D03*
D17*
X117390000Y-72395000D03*
D15*
X115275000Y-71633000D03*
X114005000Y-71633000D03*
D16*
X114640000Y-70490000D03*
D17*
X117390000Y-71125000D03*
X117390000Y-69855000D03*
X117390000Y-68585000D03*
X111890000Y-68585000D03*
X111890000Y-69855000D03*
X111890000Y-71125000D03*
X111890000Y-72395000D03*
D18*
X104140000Y-73660000D03*
D19*
X101600000Y-73660000D03*
D18*
X104140000Y-71120000D03*
D19*
X101600000Y-71120000D03*
D18*
X104140000Y-68580000D03*
D19*
X101600000Y-68580000D03*
D18*
X104140000Y-66040000D03*
D19*
X101600000Y-66040000D03*
D20*
X111855000Y-64770000D03*
X107855000Y-64770000D03*
X111982000Y-75438000D03*
X107982000Y-75438000D03*
D21*
X113030000Y-81058000D03*
X113030000Y-85058000D03*
D22*
X126669800Y-69056000D03*
X126669800Y-65056000D03*
D23*
X119405400Y-68109800D03*
X119405400Y-69659800D03*
X107390000Y-68465000D03*
X107390000Y-70015000D03*
D24*
X105664000Y-82345000D03*
X105664000Y-85295000D03*
X115570000Y-75233000D03*
X115570000Y-78183000D03*
D25*
X123367800Y-66280900D03*
X123367800Y-64705900D03*
X121640600Y-66280900D03*
X121640600Y-64705900D03*
X103124000Y-82321500D03*
X103124000Y-80746500D03*
D26*
X123190000Y-84668000D03*
X123190000Y-76368000D03*
D27*
X123367800Y-67843400D03*
X123367800Y-69493400D03*
X119405400Y-71311000D03*
X119405400Y-72961000D03*
X121640600Y-67843400D03*
X121640600Y-69493400D03*
D28*
X117856000Y-66306200D03*
X117856000Y-64656200D03*
X116255800Y-66306200D03*
X116255800Y-64656200D03*
X114655600Y-66306200D03*
X114655600Y-64656200D03*
X119430800Y-66315000D03*
X119430800Y-64665000D03*
D27*
X103124000Y-83915000D03*
X103124000Y-85565000D03*
D29*
X108270000Y-84840000D03*
X110170000Y-84840000D03*
X109220000Y-81840000D03*
M02*
